<?xml version="1.0" encoding="UTF-8" standalone="no"?><svg xmlns="http://www.w3.org/2000/svg" xmlns:xlink="http://www.w3.org/1999/xlink" contentScriptType="application/ecmascript" contentStyleType="text/css" height="715px" preserveAspectRatio="none" style="width:867px;height:715px;" version="1.1" viewBox="0 0 867 715" width="867px" zoomAndPan="magnify"><defs><filter height="300%" id="f1ma2q1kfxtsme" width="300%" x="-1" y="-1"><feGaussianBlur result="blurOut" stdDeviation="2.0"/><feColorMatrix in="blurOut" result="blurOut2" type="matrix" values="0 0 0 0 0 0 0 0 0 0 0 0 0 0 0 0 0 0 .4 0"/><feOffset dx="4.0" dy="4.0" in="blurOut2" result="blurOut3"/><feBlend in="SourceGraphic" in2="blurOut3" mode="normal"/></filter></defs><g><text fill="#000000" font-family="sans-serif" font-size="18" lengthAdjust="spacingAndGlyphs" textLength="81" x="396.5" y="16.708">Concepts</text><!--class DockerImage--><rect fill="#FEFECE" filter="url(#f1ma2q1kfxtsme)" height="48" id="DockerImage" style="stroke: #A80036; stroke-width: 1.5;" width="114" x="20" y="28.9531"/><ellipse cx="35" cy="44.9531" fill="#ADD1B2" rx="11" ry="11" style="stroke: #A80036; stroke-width: 1.0;"/><path d="M37.3438,40.625 L37.5156,40.7031 C37.7344,40.3906 37.9375,40.2969 38.2344,40.2969 C38.5313,40.2969 38.8125,40.4375 38.9688,40.7031 C39.0625,40.8594 39.0781,40.9844 39.0781,41.4219 L39.0781,42.8438 C39.0781,43.2656 39.0469,43.4531 38.9375,43.6094 C38.7656,43.8281 38.5,43.9688 38.2344,43.9688 C38.0156,43.9688 37.7813,43.8594 37.6406,43.7188 C37.5,43.5938 37.4688,43.4688 37.4063,43.0625 C37.3125,42.6563 37.1406,42.4375 36.6563,42.1563 C36.1875,41.9063 35.5781,41.75 35,41.75 C33.2656,41.75 32.0156,43.0625 32.0156,44.8438 L32.0156,45.9375 C32.0156,47.6406 33.3125,48.7344 35.3594,48.7344 C36.125,48.7344 36.8125,48.6094 37.2344,48.3438 C37.4219,48.25 37.4219,48.25 37.875,47.7656 C38.0625,47.5781 38.2656,47.5 38.4844,47.5 C38.9531,47.5 39.3438,47.8906 39.3438,48.3438 C39.3438,48.7344 39.0156,49.1875 38.4375,49.5938 C37.6875,50.1406 36.5313,50.4375 35.3125,50.4375 C32.4219,50.4375 30.3125,48.5469 30.3125,45.9688 L30.3125,44.8438 C30.3125,42.125 32.3125,40.0469 34.9375,40.0469 C35.8125,40.0469 36.4063,40.1875 37.3438,40.625 Z "/><text fill="#000000" font-family="sans-serif" font-size="12" lengthAdjust="spacingAndGlyphs" textLength="82" x="49" y="49.1074">DockerImage</text><line style="stroke: #A80036; stroke-width: 1.5;" x1="21" x2="133" y1="60.9531" y2="60.9531"/><line style="stroke: #A80036; stroke-width: 1.5;" x1="21" x2="133" y1="68.9531" y2="68.9531"/><!--class Operator--><rect fill="#FEFECE" filter="url(#f1ma2q1kfxtsme)" height="60.8047" id="Operator" style="stroke: #A80036; stroke-width: 1.5;" width="94" x="30" y="172.9531"/><ellipse cx="47.7" cy="188.9531" fill="#ADD1B2" rx="11" ry="11" style="stroke: #A80036; stroke-width: 1.0;"/><path d="M50.0438,184.625 L50.2156,184.7031 C50.4344,184.3906 50.6375,184.2969 50.9344,184.2969 C51.2313,184.2969 51.5125,184.4375 51.6688,184.7031 C51.7625,184.8594 51.7781,184.9844 51.7781,185.4219 L51.7781,186.8438 C51.7781,187.2656 51.7469,187.4531 51.6375,187.6094 C51.4656,187.8281 51.2,187.9688 50.9344,187.9688 C50.7156,187.9688 50.4813,187.8594 50.3406,187.7188 C50.2,187.5938 50.1688,187.4688 50.1063,187.0625 C50.0125,186.6563 49.8406,186.4375 49.3563,186.1563 C48.8875,185.9063 48.2781,185.75 47.7,185.75 C45.9656,185.75 44.7156,187.0625 44.7156,188.8438 L44.7156,189.9375 C44.7156,191.6406 46.0125,192.7344 48.0594,192.7344 C48.825,192.7344 49.5125,192.6094 49.9344,192.3438 C50.1219,192.25 50.1219,192.25 50.575,191.7656 C50.7625,191.5781 50.9656,191.5 51.1844,191.5 C51.6531,191.5 52.0438,191.8906 52.0438,192.3438 C52.0438,192.7344 51.7156,193.1875 51.1375,193.5938 C50.3875,194.1406 49.2313,194.4375 48.0125,194.4375 C45.1219,194.4375 43.0125,192.5469 43.0125,189.9688 L43.0125,188.8438 C43.0125,186.125 45.0125,184.0469 47.6375,184.0469 C48.5125,184.0469 49.1063,184.1875 50.0438,184.625 Z "/><text fill="#000000" font-family="sans-serif" font-size="12" lengthAdjust="spacingAndGlyphs" textLength="56" x="62.3" y="193.1074">Operator</text><line style="stroke: #A80036; stroke-width: 1.5;" x1="31" x2="123" y1="204.9531" y2="204.9531"/><ellipse cx="41" cy="216.8555" fill="#000000" rx="3" ry="3" style="stroke: #000000; stroke-width: 1.0;"/><text fill="#000000" font-family="sans-serif" font-size="11" lengthAdjust="spacingAndGlyphs" textLength="68" x="50" y="219.1636">imageName</text><line style="stroke: #A80036; stroke-width: 1.5;" x1="31" x2="123" y1="225.7578" y2="225.7578"/><!--class Task--><rect fill="#FEFECE" filter="url(#f1ma2q1kfxtsme)" height="99.2188" id="Task" style="stroke: #A80036; stroke-width: 1.5;" width="87" x="33.5" y="329.9531"/><ellipse cx="60.2" cy="345.9531" fill="#ADD1B2" rx="11" ry="11" style="stroke: #A80036; stroke-width: 1.0;"/><path d="M62.5438,341.625 L62.7156,341.7031 C62.9344,341.3906 63.1375,341.2969 63.4344,341.2969 C63.7313,341.2969 64.0125,341.4375 64.1688,341.7031 C64.2625,341.8594 64.2781,341.9844 64.2781,342.4219 L64.2781,343.8438 C64.2781,344.2656 64.2469,344.4531 64.1375,344.6094 C63.9656,344.8281 63.7,344.9688 63.4344,344.9688 C63.2156,344.9688 62.9813,344.8594 62.8406,344.7188 C62.7,344.5938 62.6688,344.4688 62.6063,344.0625 C62.5125,343.6563 62.3406,343.4375 61.8563,343.1563 C61.3875,342.9063 60.7781,342.75 60.2,342.75 C58.4656,342.75 57.2156,344.0625 57.2156,345.8438 L57.2156,346.9375 C57.2156,348.6406 58.5125,349.7344 60.5594,349.7344 C61.325,349.7344 62.0125,349.6094 62.4344,349.3438 C62.6219,349.25 62.6219,349.25 63.075,348.7656 C63.2625,348.5781 63.4656,348.5 63.6844,348.5 C64.1531,348.5 64.5438,348.8906 64.5438,349.3438 C64.5438,349.7344 64.2156,350.1875 63.6375,350.5938 C62.8875,351.1406 61.7313,351.4375 60.5125,351.4375 C57.6219,351.4375 55.5125,349.5469 55.5125,346.9688 L55.5125,345.8438 C55.5125,343.125 57.5125,341.0469 60.1375,341.0469 C61.0125,341.0469 61.6063,341.1875 62.5438,341.625 Z "/><text fill="#000000" font-family="sans-serif" font-size="12" lengthAdjust="spacingAndGlyphs" textLength="29" x="76.8" y="350.1074">Task</text><line style="stroke: #A80036; stroke-width: 1.5;" x1="34.5" x2="119.5" y1="361.9531" y2="361.9531"/><ellipse cx="44.5" cy="373.8555" fill="#000000" rx="3" ry="3" style="stroke: #000000; stroke-width: 1.0;"/><text fill="#000000" font-family="sans-serif" font-size="11" lengthAdjust="spacingAndGlyphs" textLength="61" x="53.5" y="376.1636">granularity</text><ellipse cx="44.5" cy="386.6602" fill="#000000" rx="3" ry="3" style="stroke: #000000; stroke-width: 1.0;"/><text fill="#000000" font-family="sans-serif" font-size="11" lengthAdjust="spacingAndGlyphs" textLength="49" x="53.5" y="388.9683">operator</text><ellipse cx="44.5" cy="399.4648" fill="#000000" rx="3" ry="3" style="stroke: #000000; stroke-width: 1.0;"/><text fill="#000000" font-family="sans-serif" font-size="11" lengthAdjust="spacingAndGlyphs" textLength="35" x="53.5" y="401.7729">inputs</text><ellipse cx="44.5" cy="412.2695" fill="#000000" rx="3" ry="3" style="stroke: #000000; stroke-width: 1.0;"/><text fill="#000000" font-family="sans-serif" font-size="11" lengthAdjust="spacingAndGlyphs" textLength="43" x="53.5" y="414.5776">outputs</text><line style="stroke: #A80036; stroke-width: 1.5;" x1="34.5" x2="119.5" y1="421.1719" y2="421.1719"/><!--class TaskInstance--><rect fill="#FEFECE" filter="url(#f1ma2q1kfxtsme)" height="73.6094" id="TaskInstance" style="stroke: #A80036; stroke-width: 1.5;" width="142" x="6" y="505.9531"/><ellipse cx="33.15" cy="521.9531" fill="#ADD1B2" rx="11" ry="11" style="stroke: #A80036; stroke-width: 1.0;"/><path d="M35.4938,517.625 L35.6656,517.7031 C35.8844,517.3906 36.0875,517.2969 36.3844,517.2969 C36.6813,517.2969 36.9625,517.4375 37.1188,517.7031 C37.2125,517.8594 37.2281,517.9844 37.2281,518.4219 L37.2281,519.8438 C37.2281,520.2656 37.1969,520.4531 37.0875,520.6094 C36.9156,520.8281 36.65,520.9688 36.3844,520.9688 C36.1656,520.9688 35.9313,520.8594 35.7906,520.7188 C35.65,520.5938 35.6188,520.4688 35.5563,520.0625 C35.4625,519.6563 35.2906,519.4375 34.8063,519.1563 C34.3375,518.9063 33.7281,518.75 33.15,518.75 C31.4156,518.75 30.1656,520.0625 30.1656,521.8438 L30.1656,522.9375 C30.1656,524.6406 31.4625,525.7344 33.5094,525.7344 C34.275,525.7344 34.9625,525.6094 35.3844,525.3438 C35.5719,525.25 35.5719,525.25 36.025,524.7656 C36.2125,524.5781 36.4156,524.5 36.6344,524.5 C37.1031,524.5 37.4938,524.8906 37.4938,525.3438 C37.4938,525.7344 37.1656,526.1875 36.5875,526.5938 C35.8375,527.1406 34.6813,527.4375 33.4625,527.4375 C30.5719,527.4375 28.4625,525.5469 28.4625,522.9688 L28.4625,521.8438 C28.4625,519.125 30.4625,517.0469 33.0875,517.0469 C33.9625,517.0469 34.5563,517.1875 35.4938,517.625 Z "/><text fill="#000000" font-family="sans-serif" font-size="12" lengthAdjust="spacingAndGlyphs" textLength="83" x="49.85" y="526.1074">TaskInstance</text><line style="stroke: #A80036; stroke-width: 1.5;" x1="7" x2="147" y1="537.9531" y2="537.9531"/><ellipse cx="17" cy="549.8555" fill="#000000" rx="3" ry="3" style="stroke: #000000; stroke-width: 1.0;"/><text fill="#000000" font-family="sans-serif" font-size="11" lengthAdjust="spacingAndGlyphs" textLength="106" x="26" y="552.1636">allocated resource</text><ellipse cx="17" cy="562.6602" fill="#000000" rx="3" ry="3" style="stroke: #000000; stroke-width: 1.0;"/><text fill="#000000" font-family="sans-serif" font-size="11" lengthAdjust="spacingAndGlyphs" textLength="116" x="26" y="564.9683">assigned edge node</text><line style="stroke: #A80036; stroke-width: 1.5;" x1="7" x2="147" y1="571.5625" y2="571.5625"/><!--class Topology--><rect fill="#FEFECE" filter="url(#f1ma2q1kfxtsme)" height="48" id="Topology" style="stroke: #A80036; stroke-width: 1.5;" width="88" x="218" y="355.4531"/><ellipse cx="233" cy="371.4531" fill="#ADD1B2" rx="11" ry="11" style="stroke: #A80036; stroke-width: 1.0;"/><path d="M235.3438,367.125 L235.5156,367.2031 C235.7344,366.8906 235.9375,366.7969 236.2344,366.7969 C236.5313,366.7969 236.8125,366.9375 236.9688,367.2031 C237.0625,367.3594 237.0781,367.4844 237.0781,367.9219 L237.0781,369.3438 C237.0781,369.7656 237.0469,369.9531 236.9375,370.1094 C236.7656,370.3281 236.5,370.4688 236.2344,370.4688 C236.0156,370.4688 235.7813,370.3594 235.6406,370.2188 C235.5,370.0938 235.4688,369.9688 235.4063,369.5625 C235.3125,369.1563 235.1406,368.9375 234.6563,368.6563 C234.1875,368.4063 233.5781,368.25 233,368.25 C231.2656,368.25 230.0156,369.5625 230.0156,371.3438 L230.0156,372.4375 C230.0156,374.1406 231.3125,375.2344 233.3594,375.2344 C234.125,375.2344 234.8125,375.1094 235.2344,374.8438 C235.4219,374.75 235.4219,374.75 235.875,374.2656 C236.0625,374.0781 236.2656,374 236.4844,374 C236.9531,374 237.3438,374.3906 237.3438,374.8438 C237.3438,375.2344 237.0156,375.6875 236.4375,376.0938 C235.6875,376.6406 234.5313,376.9375 233.3125,376.9375 C230.4219,376.9375 228.3125,375.0469 228.3125,372.4688 L228.3125,371.3438 C228.3125,368.625 230.3125,366.5469 232.9375,366.5469 C233.8125,366.5469 234.4063,366.6875 235.3438,367.125 Z "/><text fill="#000000" font-family="sans-serif" font-size="12" lengthAdjust="spacingAndGlyphs" textLength="56" x="247" y="375.6074">Topology</text><line style="stroke: #A80036; stroke-width: 1.5;" x1="219" x2="305" y1="387.4531" y2="387.4531"/><line style="stroke: #A80036; stroke-width: 1.5;" x1="219" x2="305" y1="395.4531" y2="395.4531"/><!--class ServiceTemplate--><rect fill="#FEFECE" filter="url(#f1ma2q1kfxtsme)" height="48" id="ServiceTemplate" style="stroke: #A80036; stroke-width: 1.5;" width="135" x="408.5" y="355.4531"/><ellipse cx="423.5" cy="371.4531" fill="#ADD1B2" rx="11" ry="11" style="stroke: #A80036; stroke-width: 1.0;"/><path d="M425.8438,367.125 L426.0156,367.2031 C426.2344,366.8906 426.4375,366.7969 426.7344,366.7969 C427.0313,366.7969 427.3125,366.9375 427.4688,367.2031 C427.5625,367.3594 427.5781,367.4844 427.5781,367.9219 L427.5781,369.3438 C427.5781,369.7656 427.5469,369.9531 427.4375,370.1094 C427.2656,370.3281 427,370.4688 426.7344,370.4688 C426.5156,370.4688 426.2813,370.3594 426.1406,370.2188 C426,370.0938 425.9688,369.9688 425.9063,369.5625 C425.8125,369.1563 425.6406,368.9375 425.1563,368.6563 C424.6875,368.4063 424.0781,368.25 423.5,368.25 C421.7656,368.25 420.5156,369.5625 420.5156,371.3438 L420.5156,372.4375 C420.5156,374.1406 421.8125,375.2344 423.8594,375.2344 C424.625,375.2344 425.3125,375.1094 425.7344,374.8438 C425.9219,374.75 425.9219,374.75 426.375,374.2656 C426.5625,374.0781 426.7656,374 426.9844,374 C427.4531,374 427.8438,374.3906 427.8438,374.8438 C427.8438,375.2344 427.5156,375.6875 426.9375,376.0938 C426.1875,376.6406 425.0313,376.9375 423.8125,376.9375 C420.9219,376.9375 418.8125,375.0469 418.8125,372.4688 L418.8125,371.3438 C418.8125,368.625 420.8125,366.5469 423.4375,366.5469 C424.3125,366.5469 424.9063,366.6875 425.8438,367.125 Z "/><text fill="#000000" font-family="sans-serif" font-size="12" lengthAdjust="spacingAndGlyphs" textLength="103" x="437.5" y="375.6074">ServiceTemplate</text><line style="stroke: #A80036; stroke-width: 1.5;" x1="409.5" x2="542.5" y1="387.4531" y2="387.4531"/><line style="stroke: #A80036; stroke-width: 1.5;" x1="409.5" x2="542.5" y1="395.4531" y2="395.4531"/><!--class IoTService--><rect fill="#FEFECE" filter="url(#f1ma2q1kfxtsme)" height="48" id="IoTService" style="stroke: #A80036; stroke-width: 1.5;" width="95" x="646.5" y="355.4531"/><ellipse cx="661.5" cy="371.4531" fill="#ADD1B2" rx="11" ry="11" style="stroke: #A80036; stroke-width: 1.0;"/><path d="M663.8438,367.125 L664.0156,367.2031 C664.2344,366.8906 664.4375,366.7969 664.7344,366.7969 C665.0313,366.7969 665.3125,366.9375 665.4688,367.2031 C665.5625,367.3594 665.5781,367.4844 665.5781,367.9219 L665.5781,369.3438 C665.5781,369.7656 665.5469,369.9531 665.4375,370.1094 C665.2656,370.3281 665,370.4688 664.7344,370.4688 C664.5156,370.4688 664.2813,370.3594 664.1406,370.2188 C664,370.0938 663.9688,369.9688 663.9063,369.5625 C663.8125,369.1563 663.6406,368.9375 663.1563,368.6563 C662.6875,368.4063 662.0781,368.25 661.5,368.25 C659.7656,368.25 658.5156,369.5625 658.5156,371.3438 L658.5156,372.4375 C658.5156,374.1406 659.8125,375.2344 661.8594,375.2344 C662.625,375.2344 663.3125,375.1094 663.7344,374.8438 C663.9219,374.75 663.9219,374.75 664.375,374.2656 C664.5625,374.0781 664.7656,374 664.9844,374 C665.4531,374 665.8438,374.3906 665.8438,374.8438 C665.8438,375.2344 665.5156,375.6875 664.9375,376.0938 C664.1875,376.6406 663.0313,376.9375 661.8125,376.9375 C658.9219,376.9375 656.8125,375.0469 656.8125,372.4688 L656.8125,371.3438 C656.8125,368.625 658.8125,366.5469 661.4375,366.5469 C662.3125,366.5469 662.9063,366.6875 663.8438,367.125 Z "/><text fill="#000000" font-family="sans-serif" font-size="12" lengthAdjust="spacingAndGlyphs" textLength="63" x="675.5" y="375.6074">IoTService</text><line style="stroke: #A80036; stroke-width: 1.5;" x1="647.5" x2="740.5" y1="387.4531" y2="387.4531"/><line style="stroke: #A80036; stroke-width: 1.5;" x1="647.5" x2="740.5" y1="395.4531" y2="395.4531"/><!--class DockerContainer--><rect fill="#FEFECE" filter="url(#f1ma2q1kfxtsme)" height="48" id="DockerContainer" style="stroke: #A80036; stroke-width: 1.5;" width="137" x="8.5" y="656.9531"/><ellipse cx="23.5" cy="672.9531" fill="#ADD1B2" rx="11" ry="11" style="stroke: #A80036; stroke-width: 1.0;"/><path d="M25.8438,668.625 L26.0156,668.7031 C26.2344,668.3906 26.4375,668.2969 26.7344,668.2969 C27.0313,668.2969 27.3125,668.4375 27.4688,668.7031 C27.5625,668.8594 27.5781,668.9844 27.5781,669.4219 L27.5781,670.8438 C27.5781,671.2656 27.5469,671.4531 27.4375,671.6094 C27.2656,671.8281 27,671.9688 26.7344,671.9688 C26.5156,671.9688 26.2813,671.8594 26.1406,671.7188 C26,671.5938 25.9688,671.4688 25.9063,671.0625 C25.8125,670.6563 25.6406,670.4375 25.1563,670.1563 C24.6875,669.9063 24.0781,669.75 23.5,669.75 C21.7656,669.75 20.5156,671.0625 20.5156,672.8438 L20.5156,673.9375 C20.5156,675.6406 21.8125,676.7344 23.8594,676.7344 C24.625,676.7344 25.3125,676.6094 25.7344,676.3438 C25.9219,676.25 25.9219,676.25 26.375,675.7656 C26.5625,675.5781 26.7656,675.5 26.9844,675.5 C27.4531,675.5 27.8438,675.8906 27.8438,676.3438 C27.8438,676.7344 27.5156,677.1875 26.9375,677.5938 C26.1875,678.1406 25.0313,678.4375 23.8125,678.4375 C20.9219,678.4375 18.8125,676.5469 18.8125,673.9688 L18.8125,672.8438 C18.8125,670.125 20.8125,668.0469 23.4375,668.0469 C24.3125,668.0469 24.9063,668.1875 25.8438,668.625 Z "/><text fill="#000000" font-family="sans-serif" font-size="12" lengthAdjust="spacingAndGlyphs" textLength="105" x="37.5" y="677.1074">DockerContainer</text><line style="stroke: #A80036; stroke-width: 1.5;" x1="9.5" x2="144.5" y1="688.9531" y2="688.9531"/><line style="stroke: #A80036; stroke-width: 1.5;" x1="9.5" x2="144.5" y1="696.9531" y2="696.9531"/><!--class Intent--><rect fill="#FEFECE" filter="url(#f1ma2q1kfxtsme)" height="99.2188" id="Intent" style="stroke: #A80036; stroke-width: 1.5;" width="81" x="435.5" y="153.9531"/><ellipse cx="455.9" cy="169.9531" fill="#ADD1B2" rx="11" ry="11" style="stroke: #A80036; stroke-width: 1.0;"/><path d="M458.2438,165.625 L458.4156,165.7031 C458.6344,165.3906 458.8375,165.2969 459.1344,165.2969 C459.4313,165.2969 459.7125,165.4375 459.8688,165.7031 C459.9625,165.8594 459.9781,165.9844 459.9781,166.4219 L459.9781,167.8438 C459.9781,168.2656 459.9469,168.4531 459.8375,168.6094 C459.6656,168.8281 459.4,168.9688 459.1344,168.9688 C458.9156,168.9688 458.6813,168.8594 458.5406,168.7188 C458.4,168.5938 458.3688,168.4688 458.3063,168.0625 C458.2125,167.6563 458.0406,167.4375 457.5563,167.1563 C457.0875,166.9063 456.4781,166.75 455.9,166.75 C454.1656,166.75 452.9156,168.0625 452.9156,169.8438 L452.9156,170.9375 C452.9156,172.6406 454.2125,173.7344 456.2594,173.7344 C457.025,173.7344 457.7125,173.6094 458.1344,173.3438 C458.3219,173.25 458.3219,173.25 458.775,172.7656 C458.9625,172.5781 459.1656,172.5 459.3844,172.5 C459.8531,172.5 460.2438,172.8906 460.2438,173.3438 C460.2438,173.7344 459.9156,174.1875 459.3375,174.5938 C458.5875,175.1406 457.4313,175.4375 456.2125,175.4375 C453.3219,175.4375 451.2125,173.5469 451.2125,170.9688 L451.2125,169.8438 C451.2125,167.125 453.2125,165.0469 455.8375,165.0469 C456.7125,165.0469 457.3063,165.1875 458.2438,165.625 Z "/><text fill="#000000" font-family="sans-serif" font-size="12" lengthAdjust="spacingAndGlyphs" textLength="37" x="471.1" y="174.1074">Intent</text><line style="stroke: #A80036; stroke-width: 1.5;" x1="436.5" x2="515.5" y1="185.9531" y2="185.9531"/><ellipse cx="446.5" cy="197.8555" fill="#000000" rx="3" ry="3" style="stroke: #000000; stroke-width: 1.0;"/><text fill="#000000" font-family="sans-serif" font-size="11" lengthAdjust="spacingAndGlyphs" textLength="50" x="455.5" y="200.1636">template</text><ellipse cx="446.5" cy="210.6602" fill="#000000" rx="3" ry="3" style="stroke: #000000; stroke-width: 1.0;"/><text fill="#000000" font-family="sans-serif" font-size="11" lengthAdjust="spacingAndGlyphs" textLength="38" x="455.5" y="212.9683">trigger</text><ellipse cx="446.5" cy="223.4648" fill="#000000" rx="3" ry="3" style="stroke: #000000; stroke-width: 1.0;"/><text fill="#000000" font-family="sans-serif" font-size="11" lengthAdjust="spacingAndGlyphs" textLength="55" x="455.5" y="225.7729">geoscope</text><ellipse cx="446.5" cy="236.2695" fill="#000000" rx="3" ry="3" style="stroke: #000000; stroke-width: 1.0;"/><text fill="#000000" font-family="sans-serif" font-size="11" lengthAdjust="spacingAndGlyphs" textLength="24" x="455.5" y="238.5776">QoS</text><line style="stroke: #A80036; stroke-width: 1.5;" x1="436.5" x2="515.5" y1="245.1719" y2="245.1719"/><!--class FogFunction--><rect fill="#FEFECE" filter="url(#f1ma2q1kfxtsme)" height="48" id="FogFunction" style="stroke: #A80036; stroke-width: 1.5;" width="109" x="718.5" y="518.9531"/><ellipse cx="733.5" cy="534.9531" fill="#ADD1B2" rx="11" ry="11" style="stroke: #A80036; stroke-width: 1.0;"/><path d="M735.8438,530.625 L736.0156,530.7031 C736.2344,530.3906 736.4375,530.2969 736.7344,530.2969 C737.0313,530.2969 737.3125,530.4375 737.4688,530.7031 C737.5625,530.8594 737.5781,530.9844 737.5781,531.4219 L737.5781,532.8438 C737.5781,533.2656 737.5469,533.4531 737.4375,533.6094 C737.2656,533.8281 737,533.9688 736.7344,533.9688 C736.5156,533.9688 736.2813,533.8594 736.1406,533.7188 C736,533.5938 735.9688,533.4688 735.9063,533.0625 C735.8125,532.6563 735.6406,532.4375 735.1563,532.1563 C734.6875,531.9063 734.0781,531.75 733.5,531.75 C731.7656,531.75 730.5156,533.0625 730.5156,534.8438 L730.5156,535.9375 C730.5156,537.6406 731.8125,538.7344 733.8594,538.7344 C734.625,538.7344 735.3125,538.6094 735.7344,538.3438 C735.9219,538.25 735.9219,538.25 736.375,537.7656 C736.5625,537.5781 736.7656,537.5 736.9844,537.5 C737.4531,537.5 737.8438,537.8906 737.8438,538.3438 C737.8438,538.7344 737.5156,539.1875 736.9375,539.5938 C736.1875,540.1406 735.0313,540.4375 733.8125,540.4375 C730.9219,540.4375 728.8125,538.5469 728.8125,535.9688 L728.8125,534.8438 C728.8125,532.125 730.8125,530.0469 733.4375,530.0469 C734.3125,530.0469 734.9063,530.1875 735.8438,530.625 Z "/><text fill="#000000" font-family="sans-serif" font-size="12" lengthAdjust="spacingAndGlyphs" textLength="77" x="747.5" y="539.1074">FogFunction</text><line style="stroke: #A80036; stroke-width: 1.5;" x1="719.5" x2="826.5" y1="550.9531" y2="550.9531"/><line style="stroke: #A80036; stroke-width: 1.5;" x1="719.5" x2="826.5" y1="558.9531" y2="558.9531"/><!--class ServiceTopology--><rect fill="#FEFECE" filter="url(#f1ma2q1kfxtsme)" height="48" id="ServiceTopology" style="stroke: #A80036; stroke-width: 1.5;" width="133" x="547.5" y="518.9531"/><ellipse cx="562.5" cy="534.9531" fill="#ADD1B2" rx="11" ry="11" style="stroke: #A80036; stroke-width: 1.0;"/><path d="M564.8438,530.625 L565.0156,530.7031 C565.2344,530.3906 565.4375,530.2969 565.7344,530.2969 C566.0313,530.2969 566.3125,530.4375 566.4688,530.7031 C566.5625,530.8594 566.5781,530.9844 566.5781,531.4219 L566.5781,532.8438 C566.5781,533.2656 566.5469,533.4531 566.4375,533.6094 C566.2656,533.8281 566,533.9688 565.7344,533.9688 C565.5156,533.9688 565.2813,533.8594 565.1406,533.7188 C565,533.5938 564.9688,533.4688 564.9063,533.0625 C564.8125,532.6563 564.6406,532.4375 564.1563,532.1563 C563.6875,531.9063 563.0781,531.75 562.5,531.75 C560.7656,531.75 559.5156,533.0625 559.5156,534.8438 L559.5156,535.9375 C559.5156,537.6406 560.8125,538.7344 562.8594,538.7344 C563.625,538.7344 564.3125,538.6094 564.7344,538.3438 C564.9219,538.25 564.9219,538.25 565.375,537.7656 C565.5625,537.5781 565.7656,537.5 565.9844,537.5 C566.4531,537.5 566.8438,537.8906 566.8438,538.3438 C566.8438,538.7344 566.5156,539.1875 565.9375,539.5938 C565.1875,540.1406 564.0313,540.4375 562.8125,540.4375 C559.9219,540.4375 557.8125,538.5469 557.8125,535.9688 L557.8125,534.8438 C557.8125,532.125 559.8125,530.0469 562.4375,530.0469 C563.3125,530.0469 563.9063,530.1875 564.8438,530.625 Z "/><text fill="#000000" font-family="sans-serif" font-size="12" lengthAdjust="spacingAndGlyphs" textLength="101" x="576.5" y="539.1074">ServiceTopology</text><line style="stroke: #A80036; stroke-width: 1.5;" x1="548.5" x2="679.5" y1="550.9531" y2="550.9531"/><line style="stroke: #A80036; stroke-width: 1.5;" x1="548.5" x2="679.5" y1="558.9531" y2="558.9531"/><!--link DockerImage to Operator--><path d="M77,90.2921 C77,115.6301 77,149.0171 77,172.7591 " fill="none" id="DockerImage-Operator" style="stroke: #A80036; stroke-width: 1.0;"/><polygon fill="#A80036" points="77,77.1561,73,83.1561,77,89.1561,81,83.1561,77,77.1561" style="stroke: #A80036; stroke-width: 1.0;"/><text fill="#000000" font-family="sans-serif" font-size="13" lengthAdjust="spacingAndGlyphs" textLength="257" x="78" y="120.02">implemented as multiple docker images</text><text fill="#000000" font-family="sans-serif" font-size="13" lengthAdjust="spacingAndGlyphs" textLength="13" x="62.4156" y="96.9668">m</text><text fill="#000000" font-family="sans-serif" font-size="13" lengthAdjust="spacingAndGlyphs" textLength="8" x="68.175" y="161.9823">1</text><!--link Operator to Task--><path d="M77,247.0831 C77,272.0631 77,303.7061 77,329.6771 " fill="none" id="Operator-Task" style="stroke: #A80036; stroke-width: 1.0;"/><polygon fill="#A80036" points="77,233.9701,73,239.9701,77,245.9701,81,239.9701,77,233.9701" style="stroke: #A80036; stroke-width: 1.0;"/><text fill="#000000" font-family="sans-serif" font-size="13" lengthAdjust="spacingAndGlyphs" textLength="45" x="78" y="296.02">include</text><text fill="#000000" font-family="sans-serif" font-size="13" lengthAdjust="spacingAndGlyphs" textLength="8" x="68.175" y="253.9119">1</text><text fill="#000000" font-family="sans-serif" font-size="13" lengthAdjust="spacingAndGlyphs" textLength="8" x="68.4625" y="319.0418">1</text><!--link Task to TaskInstance--><path d="M77,429.3471 C77,453.9491 77,483.2501 77,505.7951 " fill="none" id="Task-TaskInstance" style="stroke: #A80036; stroke-width: 1.0;"/><text fill="#000000" font-family="sans-serif" font-size="13" lengthAdjust="spacingAndGlyphs" textLength="95" x="78" y="472.02">instantiated as</text><text fill="#000000" font-family="sans-serif" font-size="13" lengthAdjust="spacingAndGlyphs" textLength="8" x="68.4625" y="449.1206">1</text><text fill="#000000" font-family="sans-serif" font-size="13" lengthAdjust="spacingAndGlyphs" textLength="8" x="68.2875" y="494.9539">1</text><!--link TaskInstance to DockerContainer--><path d="M77,580.0411 C77,604.2791 77,635.5114 77,656.5521 " fill="none" id="TaskInstance-DockerContainer" style="stroke: #A80036; stroke-width: 1.0;"/><text fill="#000000" font-family="sans-serif" font-size="13" lengthAdjust="spacingAndGlyphs" textLength="43" x="78" y="623.02">runs in</text><text fill="#000000" font-family="sans-serif" font-size="13" lengthAdjust="spacingAndGlyphs" textLength="8" x="68.3375" y="599.5363">1</text><text fill="#000000" font-family="sans-serif" font-size="13" lengthAdjust="spacingAndGlyphs" textLength="8" x="68.025" y="645.8593">1</text><!--link Task to Topology--><path d="M134.052,379.4531 C161.021,379.4531 192.728,379.4531 217.831,379.4531 " fill="none" id="Task-Topology" style="stroke: #A80036; stroke-width: 1.0;"/><polygon fill="#A80036" points="120.842,379.4531,126.842,383.4531,132.842,379.4531,126.842,375.4531,120.842,379.4531" style="stroke: #A80036; stroke-width: 1.0;"/><text fill="#000000" font-family="sans-serif" font-size="13" lengthAdjust="spacingAndGlyphs" textLength="61" x="138.75" y="372.52">consist of</text><text fill="#000000" font-family="sans-serif" font-size="13" lengthAdjust="spacingAndGlyphs" textLength="13" x="128.5506" y="375.365">m</text><text fill="#000000" font-family="sans-serif" font-size="13" lengthAdjust="spacingAndGlyphs" textLength="8" x="201.853" y="375.2888">1</text><!--link Topology to ServiceTemplate--><path d="M306.081,379.4531 C335.569,379.4531 374.944,379.4531 408.365,379.4531 " fill="none" id="Topology-ServiceTemplate" style="stroke: #A80036; stroke-width: 1.0;"/><text fill="#000000" font-family="sans-serif" font-size="13" lengthAdjust="spacingAndGlyphs" textLength="66" x="324.25" y="372.52">defined by</text><text fill="#000000" font-family="sans-serif" font-size="13" lengthAdjust="spacingAndGlyphs" textLength="8" x="314.0444" y="375.2888">1</text><text fill="#000000" font-family="sans-serif" font-size="13" lengthAdjust="spacingAndGlyphs" textLength="8" x="392.5299" y="375.707">1</text><!--link ServiceTemplate to IoTService--><path d="M543.782,379.4531 C577.029,379.4531 616.276,379.4531 646.315,379.4531 " fill="none" id="ServiceTemplate-IoTService" style="stroke: #A80036; stroke-width: 1.0;"/><text fill="#000000" font-family="sans-serif" font-size="13" lengthAdjust="spacingAndGlyphs" textLength="66" x="562" y="372.52">defined by</text><text fill="#000000" font-family="sans-serif" font-size="13" lengthAdjust="spacingAndGlyphs" textLength="8" x="551.6332" y="375.707">1</text><text fill="#000000" font-family="sans-serif" font-size="13" lengthAdjust="spacingAndGlyphs" textLength="8" x="630.4007" y="375.3818">1</text><!--link Intent to ServiceTemplate--><path d="M476,266.6981 C476,297.4811 476,332.7741 476,355.3221 " fill="none" id="Intent-ServiceTemplate" style="stroke: #A80036; stroke-width: 1.0;"/><polygon fill="#A80036" points="476,253.3851,472,259.3851,476,265.3851,480,259.3851,476,253.3851" style="stroke: #A80036; stroke-width: 1.0;"/><text fill="#000000" font-family="sans-serif" font-size="13" lengthAdjust="spacingAndGlyphs" textLength="77" x="477" y="296.02">triggered by</text><text fill="#000000" font-family="sans-serif" font-size="13" lengthAdjust="spacingAndGlyphs" textLength="13" x="462.1266" y="273.1637">m</text><text fill="#000000" font-family="sans-serif" font-size="13" lengthAdjust="spacingAndGlyphs" textLength="8" x="466.975" y="344.3006">1</text><!--link IoTService to FogFunction--><path d="M706.098,403.7121 C714.136,419.2821 724.853,440.2701 734,458.9531 C743.801,478.9721 754.546,501.9191 762.271,518.6031 " fill="none" id="IoTService-FogFunction" style="stroke: #A80036; stroke-width: 1.0;"/><text fill="#000000" font-family="sans-serif" font-size="13" lengthAdjust="spacingAndGlyphs" textLength="113" x="742" y="472.02">explcitly triggered</text><text fill="#000000" font-family="sans-serif" font-size="13" lengthAdjust="spacingAndGlyphs" textLength="8" x="700.0719" y="423.5365">1</text><text fill="#000000" font-family="sans-serif" font-size="13" lengthAdjust="spacingAndGlyphs" textLength="8" x="750.6808" y="507.9228">1</text><!--link IoTService to ServiceTopology--><path d="M656.184,403.4871 C637.647,417.0731 617.166,436.0881 607,458.9531 C598.599,477.8491 601.768,501.5331 606.202,518.7591 " fill="none" id="IoTService-ServiceTopology" style="stroke: #A80036; stroke-width: 1.0;"/><text fill="#000000" font-family="sans-serif" font-size="13" lengthAdjust="spacingAndGlyphs" textLength="117" x="608" y="472.02">implicitly triggered</text><text fill="#000000" font-family="sans-serif" font-size="13" lengthAdjust="spacingAndGlyphs" textLength="8" x="637.4686" y="423.6516">1</text><text fill="#000000" font-family="sans-serif" font-size="13" lengthAdjust="spacingAndGlyphs" textLength="8" x="595.1788" y="507.7214">1</text><!--
@startuml
title Concepts

class DockerImage
class Operator {
    * imageName
}

class Task {
     * granularity
     * operator
     * inputs
     * outputs
}

class TaskInstance {
    * allocated resource
    * assigned edge node
}


class Task
class Topology
class ServiceTemplate
class IoTService
class DockerContainer
class Intent {
	* template
	* trigger
	* geoscope
	* QoS
}



Operator "1" -down-* "m" DockerImage: implemented as multiple docker images
Operator "1" *-down- "1" Task: include
Task "1" -down- "1" TaskInstance: instantiated as
TaskInstance "1" -down- "1" DockerContainer: runs in
Task "m" *-right- "1" Topology:  consist of   
Topology "1" -right- "1" ServiceTemplate: defined by 
ServiceTemplate "1" -right- "1" IoTService: defined by 
Intent "m" *-down- "1" ServiceTemplate: triggered by

FogFunction "1" -up- "1" IoTService: explcitly triggered
ServiceTopology "1" -up- "1" IoTService: implicitly triggered
@enduml

PlantUML version 1.2018.09(Fri Jul 27 16:58:18 UTC 2018)
(GPL source distribution)
Java Runtime: Java(TM) SE Runtime Environment
JVM: Java HotSpot(TM) 64-Bit Server VM
Java Version: 1.7.0_25-b15
Operating System: Linux
Default Encoding: UTF-8
Language: en
Country: US
--></g></svg>