<?xml version="1.0" encoding="UTF-8" standalone="no"?><svg xmlns="http://www.w3.org/2000/svg" xmlns:xlink="http://www.w3.org/1999/xlink" contentScriptType="application/ecmascript" contentStyleType="text/css" height="956px" preserveAspectRatio="none" style="width:1292px;height:956px;" version="1.1" viewBox="0 0 1292 956" width="1292px" zoomAndPan="magnify"><defs><filter height="300%" id="fjbhgywj1hnty" width="300%" x="-1" y="-1"><feGaussianBlur result="blurOut" stdDeviation="2.0"/><feColorMatrix in="blurOut" result="blurOut2" type="matrix" values="0 0 0 0 0 0 0 0 0 0 0 0 0 0 0 0 0 0 .4 0"/><feOffset dx="4.0" dy="4.0" in="blurOut2" result="blurOut3"/><feBlend in="SourceGraphic" in2="blurOut3" mode="normal"/></filter></defs><g><text fill="#000000" font-family="sans-serif" font-size="18" lengthAdjust="spacingAndGlyphs" textLength="155" x="574.5" y="16.708">deployment view</text><!--cluster FogFlowCloud--><path d="M399,176.9531 C399,173.9531 401,171.9531 404,171.9531 C407,171.9531 409,173.9531 409,176.9531 C409,173.9531 411,171.9531 414,171.9531 C417,171.9531 419,173.9531 419,176.9531 C419,173.9531 421,171.9531 424,171.9531 C427,171.9531 429,173.9531 429,176.9531 C429,173.9531 431,171.9531 434,171.9531 C437,171.9531 439,173.9531 439,176.9531 C439,173.9531 441,171.9531 444,171.9531 C447,171.9531 449,173.9531 449,176.9531 C449,173.9531 451,171.9531 454,171.9531 C457,171.9531 459,173.9531 459,176.9531 C459,173.9531 461,171.9531 464,171.9531 C467,171.9531 469,173.9531 469,176.9531 C469,173.9531 471,171.9531 474,171.9531 C477,171.9531 479,173.9531 479,176.9531 C479,173.9531 481,171.9531 484,171.9531 C487,171.9531 489,173.9531 489,176.9531 C489,173.9531 491,171.9531 494,171.9531 C497,171.9531 499,173.9531 499,176.9531 C499,173.9531 501,171.9531 504,171.9531 C507,171.9531 509,173.9531 509,176.9531 C509,173.9531 511,171.9531 514,171.9531 C517,171.9531 519,173.9531 519,176.9531 C519,173.9531 521,171.9531 524,171.9531 C527,171.9531 529,173.9531 529,176.9531 C529,173.9531 531,171.9531 534,171.9531 C537,171.9531 539,173.9531 539,176.9531 C539,173.9531 541,171.9531 544,171.9531 C547,171.9531 549,173.9531 549,176.9531 C549,173.9531 551,171.9531 554,171.9531 C557,171.9531 559,173.9531 559,176.9531 C559,173.9531 561,171.9531 564,171.9531 C567,171.9531 569,173.9531 569,176.9531 C569,173.9531 571,171.9531 574,171.9531 C577,171.9531 579,173.9531 579,176.9531 C579,173.9531 581,171.9531 584,171.9531 C587,171.9531 589,173.9531 589,176.9531 C589,173.9531 591,171.9531 594,171.9531 C597,171.9531 599,173.9531 599,176.9531 C599,173.9531 601,171.9531 604,171.9531 C607,171.9531 609,173.9531 609,176.9531 C609,173.9531 611,171.9531 614,171.9531 C617,171.9531 619,173.9531 619,176.9531 C619,173.9531 621,171.9531 624,171.9531 C627,171.9531 629,173.9531 629,176.9531 C629,173.9531 631,171.9531 634,171.9531 C637,171.9531 639,173.9531 639,176.9531 C639,173.9531 641,171.9531 644,171.9531 C647,171.9531 649,173.9531 649,176.9531 C649,173.9531 651,171.9531 654,171.9531 C657,171.9531 659,173.9531 659,176.9531 C659,173.9531 661,171.9531 664,171.9531 C667,171.9531 669,173.9531 669,176.9531 C669,173.9531 671,171.9531 674,171.9531 C677,171.9531 679,173.9531 679,176.9531 C679,173.9531 681,171.9531 684,171.9531 C687,171.9531 689,173.9531 689,176.9531 C689,173.9531 691,171.9531 694,171.9531 C697,171.9531 699,173.9531 699,176.9531 C699,173.9531 701,171.9531 704,171.9531 C707,171.9531 709,173.9531 709,176.9531 C709,173.9531 711,171.9531 714,171.9531 C717,171.9531 719,173.9531 719,176.9531 C719,173.9531 721,171.9531 724,171.9531 C727,171.9531 729,173.9531 729,176.9531 C729,173.9531 731,171.9531 734,171.9531 C737,171.9531 739,173.9531 739,176.9531 C739,173.9531 741,171.9531 744,171.9531 C747,171.9531 749,173.9531 749,176.9531 C749,173.9531 751,171.9531 754,171.9531 C757,171.9531 759,173.9531 759,176.9531 C759,173.9531 761,171.9531 764,171.9531 C767,171.9531 769,173.9531 769,176.9531 C769,173.9531 771,171.9531 774,171.9531 C777,171.9531 779,173.9531 779,176.9531 C779,173.9531 781,171.9531 784,171.9531 C787,171.9531 789,173.9531 789,176.9531 C789,173.9531 791,171.9531 794,171.9531 C797,171.9531 799,173.9531 799,176.9531 C799,173.9531 801,171.9531 804,171.9531 C807,171.9531 809,173.9531 809,176.9531 C809,173.9531 811,171.9531 814,171.9531 C817,171.9531 819,173.9531 819,176.9531 C819,173.9531 821,171.9531 824,171.9531 C827,171.9531 829,173.9531 829,176.9531 C829,173.9531 831,171.9531 834,171.9531 C837,171.9531 839,173.9531 839,176.9531 C839,173.9531 841,171.9531 844,171.9531 C847,171.9531 849,173.9531 849,176.9531 C849,173.9531 851,171.9531 854,171.9531 C857,171.9531 859,173.9531 859,176.9531 C859,173.9531 861,171.9531 864,171.9531 C867,171.9531 869,173.9531 869,176.9531 C869,173.9531 871,171.9531 874,171.9531 C877,171.9531 879,173.9531 879,176.9531 C879,173.9531 881,171.9531 884,171.9531 C887,171.9531 889,173.9531 889,176.9531 C892,176.9531 894,178.9531 894,181.9531 C894,184.9531 892,186.9531 889,186.9531 C892,186.9531 894,188.9531 894,191.9531 C894,194.9531 892,196.9531 889,196.9531 C892,196.9531 894,198.9531 894,201.9531 C894,204.9531 892,206.9531 889,206.9531 C892,206.9531 894,208.9531 894,211.9531 C894,214.9531 892,216.9531 889,216.9531 C892,216.9531 894,218.9531 894,221.9531 C894,224.9531 892,226.9531 889,226.9531 C892,226.9531 894,228.9531 894,231.9531 C894,234.9531 892,236.9531 889,236.9531 C892,236.9531 894,238.9531 894,241.9531 C894,244.9531 892,246.9531 889,246.9531 C892,246.9531 894,248.9531 894,251.9531 C894,254.9531 892,256.9531 889,256.9531 C892,256.9531 894,258.9531 894,261.9531 C894,264.9531 892,266.9531 889,266.9531 C892,266.9531 894,268.9531 894,271.9531 C894,274.9531 892,276.9531 889,276.9531 C892,276.9531 894,278.9531 894,281.9531 C894,284.9531 892,286.9531 889,286.9531 C892,286.9531 894,288.9531 894,291.9531 C894,294.9531 892,296.9531 889,296.9531 C892,296.9531 894,298.9531 894,301.9531 C894,304.9531 892,306.9531 889,306.9531 C892,306.9531 894,308.9531 894,311.9531 C894,314.9531 892,316.9531 889,316.9531 C892,316.9531 894,318.9531 894,321.9531 C894,324.9531 892,326.9531 889,326.9531 C892,326.9531 894,328.9531 894,331.9531 C894,334.9531 892,336.9531 889,336.9531 C892,336.9531 894,338.9531 894,341.9531 C894,344.9531 892,346.9531 889,346.9531 C892,346.9531 894,348.9531 894,351.9531 C894,354.9531 892,356.9531 889,356.9531 C892,356.9531 894,358.9531 894,361.9531 C894,364.9531 892,366.9531 889,366.9531 C892,366.9531 894,368.9531 894,371.9531 C894,374.9531 892,376.9531 889,376.9531 C892,376.9531 894,378.9531 894,381.9531 C894,384.9531 892,386.9531 889,386.9531 C892,386.9531 894,388.9531 894,391.9531 C894,394.9531 892,396.9531 889,396.9531 C892,396.9531 894,398.9531 894,401.9531 C894,404.9531 892,406.9531 889,406.9531 C892,406.9531 894,408.9531 894,411.9531 C894,414.9531 892,416.9531 889,416.9531 C892,416.9531 894,418.9531 894,421.9531 C894,424.9531 892,426.9531 889,426.9531 C892,426.9531 894,428.9531 894,431.9531 C894,434.9531 892,436.9531 889,436.9531 C892,436.9531 894,438.9531 894,441.9531 C894,444.9531 892,446.9531 889,446.9531 C892,446.9531 894,448.9531 894,451.9531 C894,454.9531 892,456.9531 889,456.9531 C892,456.9531 894,458.9531 894,461.9531 C894,464.9531 892,466.9531 889,466.9531 C892,466.9531 894,468.9531 894,471.9531 C894,474.9531 892,476.9531 889,476.9531 C889,479.9531 886,481.9531 884,481.9531 C881,481.9531 879,479.9531 879,476.9531 C879,479.9531 876,481.9531 874,481.9531 C871,481.9531 869,479.9531 869,476.9531 C869,479.9531 866,481.9531 864,481.9531 C861,481.9531 859,479.9531 859,476.9531 C859,479.9531 856,481.9531 854,481.9531 C851,481.9531 849,479.9531 849,476.9531 C849,479.9531 846,481.9531 844,481.9531 C841,481.9531 839,479.9531 839,476.9531 C839,479.9531 836,481.9531 834,481.9531 C831,481.9531 829,479.9531 829,476.9531 C829,479.9531 826,481.9531 824,481.9531 C821,481.9531 819,479.9531 819,476.9531 C819,479.9531 816,481.9531 814,481.9531 C811,481.9531 809,479.9531 809,476.9531 C809,479.9531 806,481.9531 804,481.9531 C801,481.9531 799,479.9531 799,476.9531 C799,479.9531 796,481.9531 794,481.9531 C791,481.9531 789,479.9531 789,476.9531 C789,479.9531 786,481.9531 784,481.9531 C781,481.9531 779,479.9531 779,476.9531 C779,479.9531 776,481.9531 774,481.9531 C771,481.9531 769,479.9531 769,476.9531 C769,479.9531 766,481.9531 764,481.9531 C761,481.9531 759,479.9531 759,476.9531 C759,479.9531 756,481.9531 754,481.9531 C751,481.9531 749,479.9531 749,476.9531 C749,479.9531 746,481.9531 744,481.9531 C741,481.9531 739,479.9531 739,476.9531 C739,479.9531 736,481.9531 734,481.9531 C731,481.9531 729,479.9531 729,476.9531 C729,479.9531 726,481.9531 724,481.9531 C721,481.9531 719,479.9531 719,476.9531 C719,479.9531 716,481.9531 714,481.9531 C711,481.9531 709,479.9531 709,476.9531 C709,479.9531 706,481.9531 704,481.9531 C701,481.9531 699,479.9531 699,476.9531 C699,479.9531 696,481.9531 694,481.9531 C691,481.9531 689,479.9531 689,476.9531 C689,479.9531 686,481.9531 684,481.9531 C681,481.9531 679,479.9531 679,476.9531 C679,479.9531 676,481.9531 674,481.9531 C671,481.9531 669,479.9531 669,476.9531 C669,479.9531 666,481.9531 664,481.9531 C661,481.9531 659,479.9531 659,476.9531 C659,479.9531 656,481.9531 654,481.9531 C651,481.9531 649,479.9531 649,476.9531 C649,479.9531 646,481.9531 644,481.9531 C641,481.9531 639,479.9531 639,476.9531 C639,479.9531 636,481.9531 634,481.9531 C631,481.9531 629,479.9531 629,476.9531 C629,479.9531 626,481.9531 624,481.9531 C621,481.9531 619,479.9531 619,476.9531 C619,479.9531 616,481.9531 614,481.9531 C611,481.9531 609,479.9531 609,476.9531 C609,479.9531 606,481.9531 604,481.9531 C601,481.9531 599,479.9531 599,476.9531 C599,479.9531 596,481.9531 594,481.9531 C591,481.9531 589,479.9531 589,476.9531 C589,479.9531 586,481.9531 584,481.9531 C581,481.9531 579,479.9531 579,476.9531 C579,479.9531 576,481.9531 574,481.9531 C571,481.9531 569,479.9531 569,476.9531 C569,479.9531 566,481.9531 564,481.9531 C561,481.9531 559,479.9531 559,476.9531 C559,479.9531 556,481.9531 554,481.9531 C551,481.9531 549,479.9531 549,476.9531 C549,479.9531 546,481.9531 544,481.9531 C541,481.9531 539,479.9531 539,476.9531 C539,479.9531 536,481.9531 534,481.9531 C531,481.9531 529,479.9531 529,476.9531 C529,479.9531 526,481.9531 524,481.9531 C521,481.9531 519,479.9531 519,476.9531 C519,479.9531 516,481.9531 514,481.9531 C511,481.9531 509,479.9531 509,476.9531 C509,479.9531 506,481.9531 504,481.9531 C501,481.9531 499,479.9531 499,476.9531 C499,479.9531 496,481.9531 494,481.9531 C491,481.9531 489,479.9531 489,476.9531 C489,479.9531 486,481.9531 484,481.9531 C481,481.9531 479,479.9531 479,476.9531 C479,479.9531 476,481.9531 474,481.9531 C471,481.9531 469,479.9531 469,476.9531 C469,479.9531 466,481.9531 464,481.9531 C461,481.9531 459,479.9531 459,476.9531 C459,479.9531 456,481.9531 454,481.9531 C451,481.9531 449,479.9531 449,476.9531 C449,479.9531 446,481.9531 444,481.9531 C441,481.9531 439,479.9531 439,476.9531 C439,479.9531 436,481.9531 434,481.9531 C431,481.9531 429,479.9531 429,476.9531 C429,479.9531 426,481.9531 424,481.9531 C421,481.9531 419,479.9531 419,476.9531 C419,479.9531 416,481.9531 414,481.9531 C411,481.9531 409,479.9531 409,476.9531 C409,479.9531 406,481.9531 404,481.9531 C401,481.9531 399,479.9531 399,476.9531 C396,476.9531 394,474.9531 394,471.9531 C394,468.9531 396,466.9531 399,466.9531 C396,466.9531 394,464.9531 394,461.9531 C394,458.9531 396,456.9531 399,456.9531 C396,456.9531 394,454.9531 394,451.9531 C394,448.9531 396,446.9531 399,446.9531 C396,446.9531 394,444.9531 394,441.9531 C394,438.9531 396,436.9531 399,436.9531 C396,436.9531 394,434.9531 394,431.9531 C394,428.9531 396,426.9531 399,426.9531 C396,426.9531 394,424.9531 394,421.9531 C394,418.9531 396,416.9531 399,416.9531 C396,416.9531 394,414.9531 394,411.9531 C394,408.9531 396,406.9531 399,406.9531 C396,406.9531 394,404.9531 394,401.9531 C394,398.9531 396,396.9531 399,396.9531 C396,396.9531 394,394.9531 394,391.9531 C394,388.9531 396,386.9531 399,386.9531 C396,386.9531 394,384.9531 394,381.9531 C394,378.9531 396,376.9531 399,376.9531 C396,376.9531 394,374.9531 394,371.9531 C394,368.9531 396,366.9531 399,366.9531 C396,366.9531 394,364.9531 394,361.9531 C394,358.9531 396,356.9531 399,356.9531 C396,356.9531 394,354.9531 394,351.9531 C394,348.9531 396,346.9531 399,346.9531 C396,346.9531 394,344.9531 394,341.9531 C394,338.9531 396,336.9531 399,336.9531 C396,336.9531 394,334.9531 394,331.9531 C394,328.9531 396,326.9531 399,326.9531 C396,326.9531 394,324.9531 394,321.9531 C394,318.9531 396,316.9531 399,316.9531 C396,316.9531 394,314.9531 394,311.9531 C394,308.9531 396,306.9531 399,306.9531 C396,306.9531 394,304.9531 394,301.9531 C394,298.9531 396,296.9531 399,296.9531 C396,296.9531 394,294.9531 394,291.9531 C394,288.9531 396,286.9531 399,286.9531 C396,286.9531 394,284.9531 394,281.9531 C394,278.9531 396,276.9531 399,276.9531 C396,276.9531 394,274.9531 394,271.9531 C394,268.9531 396,266.9531 399,266.9531 C396,266.9531 394,264.9531 394,261.9531 C394,258.9531 396,256.9531 399,256.9531 C396,256.9531 394,254.9531 394,251.9531 C394,248.9531 396,246.9531 399,246.9531 C396,246.9531 394,244.9531 394,241.9531 C394,238.9531 396,236.9531 399,236.9531 C396,236.9531 394,234.9531 394,231.9531 C394,228.9531 396,226.9531 399,226.9531 C396,226.9531 394,224.9531 394,221.9531 C394,218.9531 396,216.9531 399,216.9531 C396,216.9531 394,214.9531 394,211.9531 C394,208.9531 396,206.9531 399,206.9531 C396,206.9531 394,204.9531 394,201.9531 C394,198.9531 396,196.9531 399,196.9531 C396,196.9531 394,194.9531 394,191.9531 C394,188.9531 396,186.9531 399,186.9531 C396,186.9531 394,184.9531 394,181.9531 C394,178.9531 396,176.9531 399,176.9531 " fill="#FFFFFF" filter="url(#fjbhgywj1hnty)" style="stroke: #000000; stroke-width: 1.5;"/><text fill="#000000" font-family="sans-serif" font-size="14" font-weight="bold" lengthAdjust="spacingAndGlyphs" textLength="111" x="586.5" y="195.9482">FogFlowCloud</text><!--cluster FogFlowEdge1--><polygon fill="#FFFFFF" filter="url(#fjbhgywj1hnty)" points="22,401.9531,32,391.9531,372,391.9531,372,569.9531,362,579.9531,22,579.9531,22,401.9531" style="stroke: #000000; stroke-width: 1.5;"/><line style="stroke: #000000; stroke-width: 1.5;" x1="362" x2="371" y1="401.9531" y2="392.9531"/><line style="stroke: #000000; stroke-width: 1.5;" x1="22" x2="362" y1="401.9531" y2="401.9531"/><line style="stroke: #000000; stroke-width: 1.5;" x1="362" x2="362" y1="401.9531" y2="579.9531"/><text fill="#000000" font-family="sans-serif" font-size="14" font-weight="bold" lengthAdjust="spacingAndGlyphs" textLength="115" x="135.5" y="417.9482">FogFlowEdge1</text><!--cluster FogFlowEdge2--><polygon fill="#FFFFFF" filter="url(#fjbhgywj1hnty)" points="331,617.4531,341,607.4531,764,607.4531,764,808.9531,754,818.9531,331,818.9531,331,617.4531" style="stroke: #000000; stroke-width: 1.5;"/><line style="stroke: #000000; stroke-width: 1.5;" x1="754" x2="763" y1="617.4531" y2="608.4531"/><line style="stroke: #000000; stroke-width: 1.5;" x1="331" x2="754" y1="617.4531" y2="617.4531"/><line style="stroke: #000000; stroke-width: 1.5;" x1="754" x2="754" y1="617.4531" y2="818.9531"/><text fill="#000000" font-family="sans-serif" font-size="14" font-weight="bold" lengthAdjust="spacingAndGlyphs" textLength="115" x="486" y="633.4482">FogFlowEdge2</text><!--cluster overview--><polygon fill="#FFFFFF" filter="url(#fjbhgywj1hnty)" points="912,45.4531,991,45.4531,998,67.75,1270,67.75,1270,367.9531,912,367.9531,912,45.4531" style="stroke: #000000; stroke-width: 1.5;"/><line style="stroke: #000000; stroke-width: 1.5;" x1="912" x2="998" y1="67.75" y2="67.75"/><text fill="#000000" font-family="sans-serif" font-size="14" font-weight="bold" lengthAdjust="spacingAndGlyphs" textLength="73" x="916" y="60.4482">overview</text><!--entity Discovery--><rect fill="#FEFECE" filter="url(#fjbhgywj1hnty)" height="36.2969" style="stroke: #A80036; stroke-width: 1.5;" width="87" x="618.5" y="310.9531"/><rect fill="#FEFECE" height="5" style="stroke: #A80036; stroke-width: 1.5;" width="10" x="613.5" y="315.9531"/><rect fill="#FEFECE" height="5" style="stroke: #A80036; stroke-width: 1.5;" width="10" x="613.5" y="337.25"/><text fill="#000000" font-family="sans-serif" font-size="14" lengthAdjust="spacingAndGlyphs" textLength="67" x="628.5" y="333.9482">Discovery</text><!--entity TaskDesigner--><rect fill="#FEFECE" filter="url(#fjbhgywj1hnty)" height="36.2969" style="stroke: #A80036; stroke-width: 1.5;" width="116" x="492" y="204.9531"/><rect fill="#FEFECE" height="5" style="stroke: #A80036; stroke-width: 1.5;" width="10" x="487" y="209.9531"/><rect fill="#FEFECE" height="5" style="stroke: #A80036; stroke-width: 1.5;" width="10" x="487" y="231.25"/><text fill="#000000" font-family="sans-serif" font-size="14" lengthAdjust="spacingAndGlyphs" textLength="96" x="502" y="227.9482">TaskDesigner</text><!--entity Broker--><rect fill="#FEFECE" filter="url(#fjbhgywj1hnty)" height="36.2969" style="stroke: #A80036; stroke-width: 1.5;" width="66" x="517" y="310.9531"/><rect fill="#FEFECE" height="5" style="stroke: #A80036; stroke-width: 1.5;" width="10" x="512" y="315.9531"/><rect fill="#FEFECE" height="5" style="stroke: #A80036; stroke-width: 1.5;" width="10" x="512" y="337.25"/><text fill="#000000" font-family="sans-serif" font-size="14" lengthAdjust="spacingAndGlyphs" textLength="46" x="527" y="333.9482">Broker</text><!--entity TopologyMaster--><rect fill="#FEFECE" filter="url(#fjbhgywj1hnty)" height="36.2969" style="stroke: #A80036; stroke-width: 1.5;" width="131" x="740.5" y="310.9531"/><rect fill="#FEFECE" height="5" style="stroke: #A80036; stroke-width: 1.5;" width="10" x="735.5" y="315.9531"/><rect fill="#FEFECE" height="5" style="stroke: #A80036; stroke-width: 1.5;" width="10" x="735.5" y="337.25"/><text fill="#000000" font-family="sans-serif" font-size="14" lengthAdjust="spacingAndGlyphs" textLength="111" x="750.5" y="333.9482">TopologyMaster</text><!--entity Worker--><rect fill="#FEFECE" filter="url(#fjbhgywj1hnty)" height="36.2969" style="stroke: #A80036; stroke-width: 1.5;" width="69" x="412.5" y="310.9531"/><rect fill="#FEFECE" height="5" style="stroke: #A80036; stroke-width: 1.5;" width="10" x="407.5" y="315.9531"/><rect fill="#FEFECE" height="5" style="stroke: #A80036; stroke-width: 1.5;" width="10" x="407.5" y="337.25"/><text fill="#000000" font-family="sans-serif" font-size="14" lengthAdjust="spacingAndGlyphs" textLength="49" x="422.5" y="333.9482">Worker</text><!--entity Nginx--><rect fill="#FEFECE" filter="url(#fjbhgywj1hnty)" height="36.2969" style="stroke: #A80036; stroke-width: 1.5;" width="58" x="466" y="431.9531"/><rect fill="#FEFECE" height="5" style="stroke: #A80036; stroke-width: 1.5;" width="10" x="461" y="436.9531"/><rect fill="#FEFECE" height="5" style="stroke: #A80036; stroke-width: 1.5;" width="10" x="461" y="458.25"/><text fill="#000000" font-family="sans-serif" font-size="14" lengthAdjust="spacingAndGlyphs" textLength="38" x="476" y="454.9482">Nginx</text><!--entity DiscoveryE1--><rect fill="#FEFECE" filter="url(#fjbhgywj1hnty)" height="36.2969" style="stroke: #A80036; stroke-width: 1.5;" width="105" x="236.5" y="431.9531"/><rect fill="#FEFECE" height="5" style="stroke: #A80036; stroke-width: 1.5;" width="10" x="231.5" y="436.9531"/><rect fill="#FEFECE" height="5" style="stroke: #A80036; stroke-width: 1.5;" width="10" x="231.5" y="458.25"/><text fill="#000000" font-family="sans-serif" font-size="14" lengthAdjust="spacingAndGlyphs" textLength="85" x="246.5" y="454.9482">DiscoveryE1</text><!--entity BrokerE1--><rect fill="#FEFECE" filter="url(#fjbhgywj1hnty)" height="36.2969" style="stroke: #A80036; stroke-width: 1.5;" width="84" x="161" y="527.9531"/><rect fill="#FEFECE" height="5" style="stroke: #A80036; stroke-width: 1.5;" width="10" x="156" y="532.9531"/><rect fill="#FEFECE" height="5" style="stroke: #A80036; stroke-width: 1.5;" width="10" x="156" y="554.25"/><text fill="#000000" font-family="sans-serif" font-size="14" lengthAdjust="spacingAndGlyphs" textLength="64" x="171" y="550.9482">BrokerE1</text><!--entity TopologyMasterE1--><rect fill="#FEFECE" filter="url(#fjbhgywj1hnty)" height="36.2969" style="stroke: #A80036; stroke-width: 1.5;" width="149" x="52.5" y="431.9531"/><rect fill="#FEFECE" height="5" style="stroke: #A80036; stroke-width: 1.5;" width="10" x="47.5" y="436.9531"/><rect fill="#FEFECE" height="5" style="stroke: #A80036; stroke-width: 1.5;" width="10" x="47.5" y="458.25"/><text fill="#000000" font-family="sans-serif" font-size="14" lengthAdjust="spacingAndGlyphs" textLength="129" x="62.5" y="454.9482">TopologyMasterE1</text><!--entity WorkerE1--><rect fill="#FEFECE" filter="url(#fjbhgywj1hnty)" height="36.2969" style="stroke: #A80036; stroke-width: 1.5;" width="87" x="38.5" y="527.9531"/><rect fill="#FEFECE" height="5" style="stroke: #A80036; stroke-width: 1.5;" width="10" x="33.5" y="532.9531"/><rect fill="#FEFECE" height="5" style="stroke: #A80036; stroke-width: 1.5;" width="10" x="33.5" y="554.25"/><text fill="#000000" font-family="sans-serif" font-size="14" lengthAdjust="spacingAndGlyphs" textLength="67" x="48.5" y="550.9482">WorkerE1</text><!--entity NginxE1--><rect fill="#FEFECE" filter="url(#fjbhgywj1hnty)" height="36.2969" style="stroke: #A80036; stroke-width: 1.5;" width="76" x="280" y="527.9531"/><rect fill="#FEFECE" height="5" style="stroke: #A80036; stroke-width: 1.5;" width="10" x="275" y="532.9531"/><rect fill="#FEFECE" height="5" style="stroke: #A80036; stroke-width: 1.5;" width="10" x="275" y="554.25"/><text fill="#000000" font-family="sans-serif" font-size="14" lengthAdjust="spacingAndGlyphs" textLength="56" x="290" y="550.9482">NginxE1</text><!--entity DiscoveryE2--><rect fill="#FEFECE" filter="url(#fjbhgywj1hnty)" height="36.2969" style="stroke: #A80036; stroke-width: 1.5;" width="105" x="458.5" y="647.4531"/><rect fill="#FEFECE" height="5" style="stroke: #A80036; stroke-width: 1.5;" width="10" x="453.5" y="652.4531"/><rect fill="#FEFECE" height="5" style="stroke: #A80036; stroke-width: 1.5;" width="10" x="453.5" y="673.75"/><text fill="#000000" font-family="sans-serif" font-size="14" lengthAdjust="spacingAndGlyphs" textLength="85" x="468.5" y="670.4482">DiscoveryE2</text><!--entity BrokerE2--><rect fill="#FEFECE" filter="url(#fjbhgywj1hnty)" height="36.2969" style="stroke: #A80036; stroke-width: 1.5;" width="84" x="408" y="766.9531"/><rect fill="#FEFECE" height="5" style="stroke: #A80036; stroke-width: 1.5;" width="10" x="403" y="771.9531"/><rect fill="#FEFECE" height="5" style="stroke: #A80036; stroke-width: 1.5;" width="10" x="403" y="793.25"/><text fill="#000000" font-family="sans-serif" font-size="14" lengthAdjust="spacingAndGlyphs" textLength="64" x="418" y="789.9482">BrokerE2</text><!--entity TopologyMasterE2--><rect fill="#FEFECE" filter="url(#fjbhgywj1hnty)" height="36.2969" style="stroke: #A80036; stroke-width: 1.5;" width="149" x="598.5" y="647.4531"/><rect fill="#FEFECE" height="5" style="stroke: #A80036; stroke-width: 1.5;" width="10" x="593.5" y="652.4531"/><rect fill="#FEFECE" height="5" style="stroke: #A80036; stroke-width: 1.5;" width="10" x="593.5" y="673.75"/><text fill="#000000" font-family="sans-serif" font-size="14" lengthAdjust="spacingAndGlyphs" textLength="129" x="608.5" y="670.4482">TopologyMasterE2</text><!--entity WorkerE2--><rect fill="#FEFECE" filter="url(#fjbhgywj1hnty)" height="36.2969" style="stroke: #A80036; stroke-width: 1.5;" width="87" x="527.5" y="766.9531"/><rect fill="#FEFECE" height="5" style="stroke: #A80036; stroke-width: 1.5;" width="10" x="522.5" y="771.9531"/><rect fill="#FEFECE" height="5" style="stroke: #A80036; stroke-width: 1.5;" width="10" x="522.5" y="793.25"/><text fill="#000000" font-family="sans-serif" font-size="14" lengthAdjust="spacingAndGlyphs" textLength="67" x="537.5" y="789.9482">WorkerE2</text><!--entity NginxE2--><rect fill="#FEFECE" filter="url(#fjbhgywj1hnty)" height="36.2969" style="stroke: #A80036; stroke-width: 1.5;" width="76" x="347" y="647.4531"/><rect fill="#FEFECE" height="5" style="stroke: #A80036; stroke-width: 1.5;" width="10" x="342" y="652.4531"/><rect fill="#FEFECE" height="5" style="stroke: #A80036; stroke-width: 1.5;" width="10" x="342" y="673.75"/><text fill="#000000" font-family="sans-serif" font-size="14" lengthAdjust="spacingAndGlyphs" textLength="56" x="357" y="670.4482">NginxE2</text><!--entity cloud1--><path d="M1000.5,87.4531 C1000.5,84.4531 1002.5,82.4531 1005.5,82.4531 C1008.5,82.4531 1010.5,84.4531 1010.5,87.4531 C1010.5,84.4531 1012.5,82.4531 1015.5,82.4531 C1018.5,82.4531 1020.5,84.4531 1020.5,87.4531 C1020.5,84.4531 1022.5,82.4531 1025.5,82.4531 C1028.5,82.4531 1030.5,84.4531 1030.5,87.4531 C1030.5,84.4531 1032.5,82.4531 1035.5,82.4531 C1038.5,82.4531 1040.5,84.4531 1040.5,87.4531 C1040.5,84.4531 1042.5,82.4531 1045.5,82.4531 C1048.5,82.4531 1050.5,84.4531 1050.5,87.4531 C1050.5,84.4531 1052.5,82.4531 1055.5,82.4531 C1058.5,82.4531 1060.5,84.4531 1060.5,87.4531 C1063.5,87.4531 1065.5,89.4531 1065.5,92.4531 C1065.5,95.4531 1063.5,97.4531 1060.5,97.4531 C1063.5,97.4531 1065.5,99.4531 1065.5,102.4531 C1065.5,105.4531 1063.5,107.4531 1060.5,107.4531 C1060.5,110.4531 1057.5,112.4531 1055.5,112.4531 C1052.5,112.4531 1050.5,110.4531 1050.5,107.4531 C1050.5,110.4531 1047.5,112.4531 1045.5,112.4531 C1042.5,112.4531 1040.5,110.4531 1040.5,107.4531 C1040.5,110.4531 1037.5,112.4531 1035.5,112.4531 C1032.5,112.4531 1030.5,110.4531 1030.5,107.4531 C1030.5,110.4531 1027.5,112.4531 1025.5,112.4531 C1022.5,112.4531 1020.5,110.4531 1020.5,107.4531 C1020.5,110.4531 1017.5,112.4531 1015.5,112.4531 C1012.5,112.4531 1010.5,110.4531 1010.5,107.4531 C1010.5,110.4531 1007.5,112.4531 1005.5,112.4531 C1002.5,112.4531 1000.5,110.4531 1000.5,107.4531 C997.5,107.4531 995.5,105.4531 995.5,102.4531 C995.5,99.4531 997.5,97.4531 1000.5,97.4531 C997.5,97.4531 995.5,95.4531 995.5,92.4531 C995.5,89.4531 997.5,87.4531 1000.5,87.4531 " fill="#FEFECE" filter="url(#fjbhgywj1hnty)" style="stroke: #000000; stroke-width: 1.5;"/><text fill="#000000" font-family="sans-serif" font-size="14" lengthAdjust="spacingAndGlyphs" textLength="47" x="1007.5" y="103.4482">cloud1</text><!--entity edge1--><polygon fill="#FEFECE" filter="url(#fjbhgywj1hnty)" points="1048.5,209.9531,1058.5,199.9531,1133.5,199.9531,1133.5,236.25,1123.5,246.25,1048.5,246.25,1048.5,209.9531" style="stroke: #000000; stroke-width: 1.5;"/><line style="stroke: #000000; stroke-width: 1.5;" x1="1123.5" x2="1132.5" y1="209.9531" y2="200.9531"/><line style="stroke: #000000; stroke-width: 1.5;" x1="1048.5" x2="1123.5" y1="209.9531" y2="209.9531"/><line style="stroke: #000000; stroke-width: 1.5;" x1="1123.5" x2="1123.5" y1="209.9531" y2="246.25"/><text fill="#000000" font-family="sans-serif" font-size="14" lengthAdjust="spacingAndGlyphs" textLength="45" x="1063.5" y="232.9482">edge1</text><!--entity edge2--><polygon fill="#FEFECE" filter="url(#fjbhgywj1hnty)" points="928.5,209.9531,938.5,199.9531,1013.5,199.9531,1013.5,236.25,1003.5,246.25,928.5,246.25,928.5,209.9531" style="stroke: #000000; stroke-width: 1.5;"/><line style="stroke: #000000; stroke-width: 1.5;" x1="1003.5" x2="1012.5" y1="209.9531" y2="200.9531"/><line style="stroke: #000000; stroke-width: 1.5;" x1="928.5" x2="1003.5" y1="209.9531" y2="209.9531"/><line style="stroke: #000000; stroke-width: 1.5;" x1="1003.5" x2="1003.5" y1="209.9531" y2="246.25"/><text fill="#000000" font-family="sans-serif" font-size="14" lengthAdjust="spacingAndGlyphs" textLength="45" x="943.5" y="232.9482">edge2</text><!--entity edge3--><polygon fill="#FEFECE" filter="url(#fjbhgywj1hnty)" points="1048.5,315.9531,1058.5,305.9531,1133.5,305.9531,1133.5,342.25,1123.5,352.25,1048.5,352.25,1048.5,315.9531" style="stroke: #000000; stroke-width: 1.5;"/><line style="stroke: #000000; stroke-width: 1.5;" x1="1123.5" x2="1132.5" y1="315.9531" y2="306.9531"/><line style="stroke: #000000; stroke-width: 1.5;" x1="1048.5" x2="1123.5" y1="315.9531" y2="315.9531"/><line style="stroke: #000000; stroke-width: 1.5;" x1="1123.5" x2="1123.5" y1="315.9531" y2="352.25"/><text fill="#000000" font-family="sans-serif" font-size="14" lengthAdjust="spacingAndGlyphs" textLength="45" x="1063.5" y="338.9482">edge3</text><!--entity edge4--><polygon fill="#FEFECE" filter="url(#fjbhgywj1hnty)" points="1168.5,315.9531,1178.5,305.9531,1253.5,305.9531,1253.5,342.25,1243.5,352.25,1168.5,352.25,1168.5,315.9531" style="stroke: #000000; stroke-width: 1.5;"/><line style="stroke: #000000; stroke-width: 1.5;" x1="1243.5" x2="1252.5" y1="315.9531" y2="306.9531"/><line style="stroke: #000000; stroke-width: 1.5;" x1="1168.5" x2="1243.5" y1="315.9531" y2="315.9531"/><line style="stroke: #000000; stroke-width: 1.5;" x1="1243.5" x2="1243.5" y1="315.9531" y2="352.25"/><text fill="#000000" font-family="sans-serif" font-size="14" lengthAdjust="spacingAndGlyphs" textLength="45" x="1183.5" y="338.9482">edge4</text><!--entity edge5--><polygon fill="#FEFECE" filter="url(#fjbhgywj1hnty)" points="928.5,315.9531,938.5,305.9531,1013.5,305.9531,1013.5,342.25,1003.5,352.25,928.5,352.25,928.5,315.9531" style="stroke: #000000; stroke-width: 1.5;"/><line style="stroke: #000000; stroke-width: 1.5;" x1="1003.5" x2="1012.5" y1="315.9531" y2="306.9531"/><line style="stroke: #000000; stroke-width: 1.5;" x1="928.5" x2="1003.5" y1="315.9531" y2="315.9531"/><line style="stroke: #000000; stroke-width: 1.5;" x1="1003.5" x2="1003.5" y1="315.9531" y2="352.25"/><text fill="#000000" font-family="sans-serif" font-size="14" lengthAdjust="spacingAndGlyphs" textLength="45" x="943.5" y="338.9482">edge5</text><!--entity developer--><ellipse cx="501" cy="66.9531" fill="#FEFECE" filter="url(#fjbhgywj1hnty)" rx="8" ry="8" style="stroke: #A80036; stroke-width: 2.0;"/><path d="M501,74.9531 L501,101.9531 M488,82.9531 L514,82.9531 M501,101.9531 L488,116.9531 M501,101.9531 L514,116.9531 " fill="none" filter="url(#fjbhgywj1hnty)" style="stroke: #A80036; stroke-width: 2.0;"/><text fill="#000000" font-family="sans-serif" font-size="14" lengthAdjust="spacingAndGlyphs" textLength="69" x="466.5" y="136.9482">developer</text><!--entity operator--><ellipse cx="600" cy="66.9531" fill="#FEFECE" filter="url(#fjbhgywj1hnty)" rx="8" ry="8" style="stroke: #A80036; stroke-width: 2.0;"/><path d="M600,74.9531 L600,101.9531 M587,82.9531 L613,82.9531 M600,101.9531 L587,116.9531 M600,101.9531 L613,116.9531 " fill="none" filter="url(#fjbhgywj1hnty)" style="stroke: #A80036; stroke-width: 2.0;"/><text fill="#000000" font-family="sans-serif" font-size="14" lengthAdjust="spacingAndGlyphs" textLength="59" x="570.5" y="136.9482">operator</text><!--entity producer--><ellipse cx="138" cy="633.9531" fill="#FEFECE" filter="url(#fjbhgywj1hnty)" rx="8" ry="8" style="stroke: #A80036; stroke-width: 2.0;"/><path d="M138,641.9531 L138,668.9531 M125,649.9531 L151,649.9531 M138,668.9531 L125,683.9531 M138,668.9531 L151,683.9531 " fill="none" filter="url(#fjbhgywj1hnty)" style="stroke: #A80036; stroke-width: 2.0;"/><text fill="#000000" font-family="sans-serif" font-size="14" lengthAdjust="spacingAndGlyphs" textLength="63" x="106.5" y="703.9482">producer</text><!--entity consumer--><ellipse cx="240" cy="633.9531" fill="#FEFECE" filter="url(#fjbhgywj1hnty)" rx="8" ry="8" style="stroke: #A80036; stroke-width: 2.0;"/><path d="M240,641.9531 L240,668.9531 M227,649.9531 L253,649.9531 M240,668.9531 L227,683.9531 M240,668.9531 L253,683.9531 " fill="none" filter="url(#fjbhgywj1hnty)" style="stroke: #A80036; stroke-width: 2.0;"/><text fill="#000000" font-family="sans-serif" font-size="14" lengthAdjust="spacingAndGlyphs" textLength="70" x="205" y="703.9482">consumer</text><!--entity prosumer--><ellipse cx="450" cy="872.9531" fill="#FEFECE" filter="url(#fjbhgywj1hnty)" rx="8" ry="8" style="stroke: #A80036; stroke-width: 2.0;"/><path d="M450,880.9531 L450,907.9531 M437,888.9531 L463,888.9531 M450,907.9531 L437,922.9531 M450,907.9531 L463,922.9531 " fill="none" filter="url(#fjbhgywj1hnty)" style="stroke: #A80036; stroke-width: 2.0;"/><text fill="#000000" font-family="sans-serif" font-size="14" lengthAdjust="spacingAndGlyphs" textLength="67" x="416.5" y="942.9482">prosumer</text><!--link Broker to Discovery--><path d="M583.25,328.9531 C594.939,328.9531 606.629,328.9531 618.318,328.9531 " fill="none" id="Broker-Discovery" style="stroke: #A80036; stroke-width: 1.0;"/><!--link TaskDesigner to Broker--><path d="M550,241.1261 C550,260.3961 550,291.4741 550,310.7541 " fill="none" id="TaskDesigner-Broker" style="stroke: #A80036; stroke-width: 1.0;"/><!--link Discovery to TopologyMaster--><path d="M705.594,328.9531 C717.099,328.9531 728.604,328.9531 740.108,328.9531 " fill="none" id="Discovery-TopologyMaster" style="stroke: #A80036; stroke-width: 1.0;"/><!--link Worker to Broker--><path d="M481.602,328.9531 C493.358,328.9531 505.114,328.9531 516.87,328.9531 " fill="none" id="Worker-Broker" style="stroke: #A80036; stroke-width: 1.0;"/><!--link Discovery to Nginx--><path d="M639.157,347.1621 C627.502,355.8761 613.063,366.5701 600,375.9531 C572.952,395.3821 541.552,417.1051 520.186,431.7641 " fill="none" id="Discovery-Nginx" style="stroke: #A80036; stroke-width: 1.0;"/><!--link Broker to Nginx--><path d="M542.12,347.0031 C531.664,369.6251 513.314,409.3291 502.866,431.9351 " fill="none" id="Broker-Nginx" style="stroke: #A80036; stroke-width: 1.0;"/><!--link DiscoveryE1 to BrokerE1--><path d="M273.226,468.1941 C257.709,485.1551 234.156,510.8981 218.674,527.8211 " fill="none" id="DiscoveryE1-BrokerE1" style="stroke: #A80036; stroke-width: 1.0;"/><!--link TopologyMasterE1 to DiscoveryE1--><path d="M201.672,449.9531 C213.27,449.9531 224.868,449.9531 236.467,449.9531 " fill="none" id="TopologyMasterE1-DiscoveryE1" style="stroke: #A80036; stroke-width: 1.0;"/><!--link WorkerE1 to BrokerE1--><path d="M125.957,545.9531 C137.594,545.9531 149.23,545.9531 160.867,545.9531 " fill="none" id="WorkerE1-BrokerE1" style="stroke: #A80036; stroke-width: 1.0;"/><!--link DiscoveryE1 to NginxE1--><path d="M294.319,468.1941 C299.552,485.1551 307.494,510.8981 312.715,527.8211 " fill="none" id="DiscoveryE1-NginxE1" style="stroke: #A80036; stroke-width: 1.0;"/><!--link BrokerE1 to NginxE1--><path d="M245.227,545.9531 C256.787,545.9531 268.347,545.9531 279.908,545.9531 " fill="none" id="BrokerE1-NginxE1" style="stroke: #A80036; stroke-width: 1.0;"/><!--link DiscoveryE2 to BrokerE2--><path d="M502.13,683.5391 C490.565,705.8161 470.451,744.5601 458.881,766.8471 " fill="none" id="DiscoveryE2-BrokerE2" style="stroke: #A80036; stroke-width: 1.0;"/><!--link DiscoveryE2 to TopologyMasterE2--><path d="M563.523,665.4531 C575.07,665.4531 586.616,665.4531 598.163,665.4531 " fill="none" id="DiscoveryE2-TopologyMasterE2" style="stroke: #A80036; stroke-width: 1.0;"/><!--link BrokerE2 to WorkerE2--><path d="M492.066,784.9531 C503.783,784.9531 515.5,784.9531 527.217,784.9531 " fill="none" id="BrokerE2-WorkerE2" style="stroke: #A80036; stroke-width: 1.0;"/><!--link NginxE2 to DiscoveryE2--><path d="M423.391,665.4531 C435.026,665.4531 446.662,665.4531 458.297,665.4531 " fill="none" id="NginxE2-DiscoveryE2" style="stroke: #A80036; stroke-width: 1.0;"/><!--link NginxE2 to BrokerE2--><path d="M394.452,683.5391 C406.775,705.8161 428.208,744.5601 440.537,766.8471 " fill="none" id="NginxE2-BrokerE2" style="stroke: #A80036; stroke-width: 1.0;"/><!--link Nginx to NginxE1--><path d="M465.772,466.4751 C433.959,483.3701 383.234,510.3091 350.272,527.8141 " fill="none" id="Nginx-NginxE1" style="stroke: #0000FF; stroke-width: 1.0;"/><!--link Nginx to NginxE2--><path d="M486.184,468.0641 C465.588,508.0401 414.496,607.2041 393.858,647.2611 " fill="none" id="Nginx-NginxE2" style="stroke: #0000FF; stroke-width: 1.0;"/><!--link NginxE1 to NginxE2--><path d="M327.742,564.0391 C340.445,586.3161 362.537,625.0601 375.246,647.3471 " fill="none" id="NginxE1-NginxE2" style="stroke: #0000FF; stroke-width: 1.0;"/><!--link developer to TaskDesigner--><path d="M517.316,140.2441 C526.114,162.2371 536.502,188.2071 543.166,204.8681 " fill="none" id="developer-TaskDesigner" style="stroke: #A80036; stroke-width: 1.0; stroke-dasharray: 7.0,7.0;"/><!--link operator to TaskDesigner--><path d="M583.351,140.2441 C574.374,162.2371 563.774,188.2071 556.974,204.8681 " fill="none" id="operator-TaskDesigner" style="stroke: #A80036; stroke-width: 1.0; stroke-dasharray: 7.0,7.0;"/><!--link BrokerE1 to producer--><path d="M193.548,564.0391 C184.922,579.6331 171.832,603.2951 160.525,623.7341 " fill="none" id="BrokerE1-producer" style="stroke: #A80036; stroke-width: 1.0; stroke-dasharray: 7.0,7.0;"/><!--link BrokerE1 to consumer--><path d="M208.38,564.0391 C213.291,579.6331 220.742,603.2951 227.178,623.7341 " fill="none" id="BrokerE1-consumer" style="stroke: #A80036; stroke-width: 1.0; stroke-dasharray: 7.0,7.0;"/><!--link BrokerE2 to prosumer--><path d="M450,803.0391 C450,818.6331 450,842.2951 450,862.734 " fill="none" id="BrokerE2-prosumer" style="stroke: #A80036; stroke-width: 1.0; stroke-dasharray: 7.0,7.0;"/><!--link cloud1 to edge1--><path d="M1039.34,116.4861 C1049.97,138.1811 1068.36,175.7231 1080.09,199.6711 " fill="none" id="cloud1-edge1" style="stroke: #A80036; stroke-width: 1.0;"/><!--link cloud1 to edge2--><path d="M1022.66,116.4861 C1012.03,138.1811 993.643,175.7231 981.913,199.6711 " fill="none" id="cloud1-edge2" style="stroke: #A80036; stroke-width: 1.0;"/><!--link edge1 to edge3--><path d="M1091,246.0091 C1091,263.6581 1091,288.2881 1091,305.9291 " fill="none" id="edge1-edge3" style="stroke: #A80036; stroke-width: 1.0;"/><!--link edge1 to edge4--><path d="M1116.45,246.0091 C1136.81,263.6581 1165.23,288.2881 1185.59,305.9291 " fill="none" id="edge1-edge4" style="stroke: #A80036; stroke-width: 1.0;"/><!--link edge2 to edge5--><path d="M971,246.0091 C971,263.6581 971,288.2881 971,305.9291 " fill="none" id="edge2-edge5" style="stroke: #A80036; stroke-width: 1.0;"/><!--
@startuml
title deployment view

cloud FogFlowCloud {
    component Discovery
    component TaskDesigner
    component Broker    
    component TopologyMaster
    component Worker   
    component Nginx
    
    Broker -right- Discovery
    TaskDesigner - - Broker
    TopologyMaster -left- Discovery
    Worker -right- Broker
    Nginx -up- Discovery
    Nginx -up- Broker
}


node FogFlowEdge1 {
    component DiscoveryE1
    component BrokerE1   
    component TopologyMasterE1
    component WorkerE1   
    component NginxE1
    
    BrokerE1 -up- DiscoveryE1
    TopologyMasterE1 -right- DiscoveryE1
    WorkerE1 -right- BrokerE1
    NginxE1 -left- DiscoveryE1
    NginxE1 -left- BrokerE1
}


actor  developer
actor  operator
actor  producer
actor  consumer
actor  prosumer


node FogFlowEdge2 {
    
    component DiscoveryE2 
    component BrokerE2   
    component TopologyMasterE2
    component WorkerE2   
    component NginxE2
    
    BrokerE2 -up- DiscoveryE2
    TopologyMasterE2 -left- DiscoveryE2
    WorkerE2 -left- BrokerE2
    NginxE2 -right- DiscoveryE2
    NginxE2 -right- BrokerE2
}



NginxE1 -[#0000FF]up- Nginx
NginxE2 -[#0000FF]up- Nginx
NginxE1 -[#0000FF]- NginxE2

developer .. TaskDesigner
operator .. TaskDesigner

producer .up. BrokerE1
consumer .up. BrokerE1
prosumer .up. BrokerE2


package overview {

cloud cloud1

node edge1
node edge2
node edge3
node edge4
node edge5

edge1 -up- cloud1
edge2 -up- cloud1

edge3 -up- edge1
edge4 -up- edge1

edge5 -up- edge2

}
@enduml

PlantUML version 1.2018.08(Sun Jun 24 12:31:00 UTC 2018)
(GPL source distribution)
Java Runtime: Java(TM) SE Runtime Environment
JVM: Java HotSpot(TM) 64-Bit Server VM
Java Version: 1.7.0_25-b15
Operating System: Linux
Default Encoding: UTF-8
Language: en
Country: US
--></g></svg>