<?xml version="1.0" encoding="UTF-8" standalone="no"?><svg xmlns="http://www.w3.org/2000/svg" xmlns:xlink="http://www.w3.org/1999/xlink" contentScriptType="application/ecmascript" contentStyleType="text/css" height="615px" preserveAspectRatio="none" style="width:982px;height:615px;" version="1.1" viewBox="0 0 982 615" width="982px" zoomAndPan="magnify"><defs><filter height="300%" id="flft9j6qwhqpq" width="300%" x="-1" y="-1"><feGaussianBlur result="blurOut" stdDeviation="2.0"/><feColorMatrix in="blurOut" result="blurOut2" type="matrix" values="0 0 0 0 0 0 0 0 0 0 0 0 0 0 0 0 0 0 .4 0"/><feOffset dx="4.0" dy="4.0" in="blurOut2" result="blurOut3"/><feBlend in="SourceGraphic" in2="blurOut3" mode="normal"/></filter></defs><g><text fill="#000000" font-family="sans-serif" font-size="14" font-weight="bold" lengthAdjust="spacingAndGlyphs" textLength="124" x="429.5" y="22.9951">"routing tables"</text><line style="stroke: #A80036; stroke-width: 1.0; stroke-dasharray: 5.0,5.0;" x1="78" x2="78" y1="68.5938" y2="574.7188"/><line style="stroke: #A80036; stroke-width: 1.0; stroke-dasharray: 5.0,5.0;" x1="349" x2="349" y1="68.5938" y2="574.7188"/><line style="stroke: #A80036; stroke-width: 1.0; stroke-dasharray: 5.0,5.0;" x1="740" x2="740" y1="68.5938" y2="574.7188"/><line style="stroke: #A80036; stroke-width: 1.0; stroke-dasharray: 5.0,5.0;" x1="901" x2="901" y1="68.5938" y2="574.7188"/><rect fill="#FEFECE" filter="url(#flft9j6qwhqpq)" height="30.2969" style="stroke: #A80036; stroke-width: 1.5;" width="136" x="8" y="33.2969"/><text fill="#000000" font-family="sans-serif" font-size="14" lengthAdjust="spacingAndGlyphs" textLength="122" x="15" y="53.292">RemoteDiscovery</text><rect fill="#FEFECE" filter="url(#flft9j6qwhqpq)" height="30.2969" style="stroke: #A80036; stroke-width: 1.5;" width="136" x="8" y="573.7188"/><text fill="#000000" font-family="sans-serif" font-size="14" lengthAdjust="spacingAndGlyphs" textLength="122" x="15" y="593.7139">RemoteDiscovery</text><rect fill="#FEFECE" filter="url(#flft9j6qwhqpq)" height="30.2969" style="stroke: #A80036; stroke-width: 1.5;" width="116" x="289" y="33.2969"/><text fill="#000000" font-family="sans-serif" font-size="14" lengthAdjust="spacingAndGlyphs" textLength="102" x="296" y="53.292">LocalDiscovery</text><rect fill="#FEFECE" filter="url(#flft9j6qwhqpq)" height="30.2969" style="stroke: #A80036; stroke-width: 1.5;" width="116" x="289" y="573.7188"/><text fill="#000000" font-family="sans-serif" font-size="14" lengthAdjust="spacingAndGlyphs" textLength="102" x="296" y="593.7139">LocalDiscovery</text><rect fill="#FEFECE" filter="url(#flft9j6qwhqpq)" height="30.2969" style="stroke: #A80036; stroke-width: 1.5;" width="150" x="663" y="33.2969"/><text fill="#000000" font-family="sans-serif" font-size="14" lengthAdjust="spacingAndGlyphs" textLength="136" x="670" y="53.292">ScopeRoutingTable</text><rect fill="#FEFECE" filter="url(#flft9j6qwhqpq)" height="30.2969" style="stroke: #A80036; stroke-width: 1.5;" width="150" x="663" y="573.7188"/><text fill="#000000" font-family="sans-serif" font-size="14" lengthAdjust="spacingAndGlyphs" textLength="136" x="670" y="593.7139">ScopeRoutingTable</text><rect fill="#FEFECE" filter="url(#flft9j6qwhqpq)" height="30.2969" style="stroke: #A80036; stroke-width: 1.5;" width="144" x="827" y="33.2969"/><text fill="#000000" font-family="sans-serif" font-size="14" lengthAdjust="spacingAndGlyphs" textLength="130" x="834" y="53.292">TopicRoutingTable</text><rect fill="#FEFECE" filter="url(#flft9j6qwhqpq)" height="30.2969" style="stroke: #A80036; stroke-width: 1.5;" width="144" x="827" y="573.7188"/><text fill="#000000" font-family="sans-serif" font-size="14" lengthAdjust="spacingAndGlyphs" textLength="130" x="834" y="593.7139">TopicRoutingTable</text><polygon fill="#A80036" points="337,95.7266,347,99.7266,337,103.7266,341,99.7266" style="stroke: #A80036; stroke-width: 1.0;"/><line style="stroke: #A80036; stroke-width: 1.0;" x1="78" x2="343" y1="99.7266" y2="99.7266"/><text fill="#000000" font-family="sans-serif" font-size="13" lengthAdjust="spacingAndGlyphs" textLength="181" x="85" y="94.6606">announcement of a new site</text><polygon fill="#A80036" points="728,124.8594,738,128.8594,728,132.8594,732,128.8594" style="stroke: #A80036; stroke-width: 1.0;"/><line style="stroke: #A80036; stroke-width: 1.0;" x1="349" x2="734" y1="128.8594" y2="128.8594"/><text fill="#000000" font-family="sans-serif" font-size="13" lengthAdjust="spacingAndGlyphs" textLength="197" x="356" y="123.7935">update the scope routing table</text><path d="M354,141.8594 L354,166.8594 L552,166.8594 L552,151.8594 L542,141.8594 L354,141.8594 " fill="#00FFFF" filter="url(#flft9j6qwhqpq)" style="stroke: #A80036; stroke-width: 1.0;"/><path d="M542,141.8594 L542,151.8594 L552,151.8594 L542,141.8594 " fill="#00FFFF" style="stroke: #A80036; stroke-width: 1.0;"/><text fill="#000000" font-family="sans-serif" font-size="13" lengthAdjust="spacingAndGlyphs" textLength="177" x="360" y="158.9263">lookup only triggered locally</text><polygon fill="#A80036" points="728,193.125,738,197.125,728,201.125,732,197.125" style="stroke: #A80036; stroke-width: 1.0;"/><line style="stroke: #A80036; stroke-width: 1.0;" x1="349" x2="734" y1="197.125" y2="197.125"/><text fill="#000000" font-family="sans-serif" font-size="13" lengthAdjust="spacingAndGlyphs" textLength="172" x="356" y="192.0591">lookup a scope &lt;polygon&gt;</text><polygon fill="#A80036" points="360,222.2578,350,226.2578,360,230.2578,356,226.2578" style="stroke: #A80036; stroke-width: 1.0;"/><line style="stroke: #A80036; stroke-width: 1.0;" x1="354" x2="739" y1="226.2578" y2="226.2578"/><text fill="#000000" font-family="sans-serif" font-size="13" lengthAdjust="spacingAndGlyphs" textLength="367" x="366" y="221.1919">a set of sites, which is the minimal coverage of this scope</text><polygon fill="#A80036" points="728,251.3906,738,255.3906,728,259.3906,732,255.3906" style="stroke: #A80036; stroke-width: 1.0;"/><line style="stroke: #A80036; stroke-width: 1.0;" x1="349" x2="734" y1="255.3906" y2="255.3906"/><text fill="#000000" font-family="sans-serif" font-size="13" lengthAdjust="spacingAndGlyphs" textLength="124" x="356" y="250.3247">lookup a point &lt;P&gt;</text><polygon fill="#A80036" points="360,280.5234,350,284.5234,360,288.5234,356,284.5234" style="stroke: #A80036; stroke-width: 1.0;"/><line style="stroke: #A80036; stroke-width: 1.0;" x1="354" x2="739" y1="284.5234" y2="284.5234"/><text fill="#000000" font-family="sans-serif" font-size="13" lengthAdjust="spacingAndGlyphs" textLength="187" x="366" y="279.4575">the site that covers this point</text><polygon fill="#A80036" points="728,309.6563,738,313.6563,728,317.6563,732,313.6563" style="stroke: #A80036; stroke-width: 1.0;"/><line style="stroke: #A80036; stroke-width: 1.0;" x1="349" x2="734" y1="313.6563" y2="313.6563"/><text fill="#000000" font-family="sans-serif" font-size="13" lengthAdjust="spacingAndGlyphs" textLength="173" x="356" y="308.5903">lookup the scope &lt;global&gt;</text><polygon fill="#A80036" points="360,338.7891,350,342.7891,360,346.7891,356,342.7891" style="stroke: #A80036; stroke-width: 1.0;"/><line style="stroke: #A80036; stroke-width: 1.0;" x1="354" x2="739" y1="342.7891" y2="342.7891"/><text fill="#000000" font-family="sans-serif" font-size="13" lengthAdjust="spacingAndGlyphs" textLength="91" x="366" y="337.7231">return all sites</text><polygon fill="#A80036" points="728,367.9219,738,371.9219,728,375.9219,732,371.9219" style="stroke: #A80036; stroke-width: 1.0;"/><line style="stroke: #A80036; stroke-width: 1.0;" x1="349" x2="734" y1="371.9219" y2="371.9219"/><text fill="#000000" font-family="sans-serif" font-size="13" lengthAdjust="spacingAndGlyphs" textLength="149" x="356" y="366.856">lookup the nearby sites</text><polygon fill="#A80036" points="360,397.0547,350,401.0547,360,405.0547,356,401.0547" style="stroke: #A80036; stroke-width: 1.0;"/><line style="stroke: #A80036; stroke-width: 1.0;" x1="354" x2="739" y1="401.0547" y2="401.0547"/><text fill="#000000" font-family="sans-serif" font-size="13" lengthAdjust="spacingAndGlyphs" textLength="179" x="366" y="395.9888">return all direct nearby sites</text><polygon fill="#A80036" points="337,426.1875,347,430.1875,337,434.1875,341,430.1875" style="stroke: #A80036; stroke-width: 1.0;"/><line style="stroke: #A80036; stroke-width: 1.0;" x1="78" x2="343" y1="430.1875" y2="430.1875"/><text fill="#000000" font-family="sans-serif" font-size="13" lengthAdjust="spacingAndGlyphs" textLength="247" x="85" y="425.1216">announcement of a new topic by a site</text><polygon fill="#A80036" points="889,455.3203,899,459.3203,889,463.3203,893,459.3203" style="stroke: #A80036; stroke-width: 1.0;"/><line style="stroke: #A80036; stroke-width: 1.0;" x1="349" x2="895" y1="459.3203" y2="459.3203"/><text fill="#000000" font-family="sans-serif" font-size="13" lengthAdjust="spacingAndGlyphs" textLength="190" x="356" y="454.2544">update the topic routing table</text><path d="M354,472.3203 L354,497.3203 L552,497.3203 L552,482.3203 L542,472.3203 L354,472.3203 " fill="#00FFFF" filter="url(#flft9j6qwhqpq)" style="stroke: #A80036; stroke-width: 1.0;"/><path d="M542,472.3203 L542,482.3203 L552,482.3203 L542,472.3203 " fill="#00FFFF" style="stroke: #A80036; stroke-width: 1.0;"/><text fill="#000000" font-family="sans-serif" font-size="13" lengthAdjust="spacingAndGlyphs" textLength="177" x="360" y="489.3872">lookup only triggered locally</text><polygon fill="#A80036" points="889,523.5859,899,527.5859,889,531.5859,893,527.5859" style="stroke: #A80036; stroke-width: 1.0;"/><line style="stroke: #A80036; stroke-width: 1.0;" x1="349" x2="895" y1="527.5859" y2="527.5859"/><text fill="#000000" font-family="sans-serif" font-size="13" lengthAdjust="spacingAndGlyphs" textLength="122" x="356" y="522.52">lookup a topic &lt;T&gt;</text><polygon fill="#A80036" points="360,552.7188,350,556.7188,360,560.7188,356,556.7188" style="stroke: #A80036; stroke-width: 1.0;"/><line style="stroke: #A80036; stroke-width: 1.0;" x1="354" x2="900" y1="556.7188" y2="556.7188"/><text fill="#000000" font-family="sans-serif" font-size="13" lengthAdjust="spacingAndGlyphs" textLength="365" x="366" y="551.6528">a set of sites, each can provide some entities with topic T</text><!--
@startuml
title "routing tables"


participant RemoteDiscovery
participant LocalDiscovery

RemoteDiscovery -> LocalDiscovery: announcement of a new site
LocalDiscovery -> ScopeRoutingTable: update the scope routing table

note right of LocalDiscovery #aqua 
    lookup only triggered locally
end note    
    
LocalDiscovery -> ScopeRoutingTable: lookup a scope <polygon>
ScopeRoutingTable -> LocalDiscovery: a set of sites, which is the minimal coverage of this scope
LocalDiscovery -> ScopeRoutingTable: lookup a point <P>
ScopeRoutingTable -> LocalDiscovery: the site that covers this point
LocalDiscovery -> ScopeRoutingTable: lookup the scope <global>
ScopeRoutingTable -> LocalDiscovery: return all sites
LocalDiscovery -> ScopeRoutingTable: lookup the nearby sites
ScopeRoutingTable -> LocalDiscovery: return all direct nearby sites



RemoteDiscovery -> LocalDiscovery: announcement of a new topic by a site
LocalDiscovery -> TopicRoutingTable: update the topic routing table


note right of LocalDiscovery #aqua 
    lookup only triggered locally
end note    

LocalDiscovery -> TopicRoutingTable: lookup a topic <T>
TopicRoutingTable -> LocalDiscovery: a set of sites, each can provide some entities with topic T
@enduml

PlantUML version 1.2018.09(Fri Jul 27 16:58:18 UTC 2018)
(GPL source distribution)
Java Runtime: Java(TM) SE Runtime Environment
JVM: Java HotSpot(TM) 64-Bit Server VM
Java Version: 1.7.0_25-b15
Operating System: Linux
Default Encoding: UTF-8
Language: en
Country: US
--></g></svg>